<svg width="499" height="312" viewBox="0 0 499 312" fill="none" xmlns="http://www.w3.org/2000/svg">
    <g clip-path="url(#clip0_705_10649)">
        <rect width="499" height="312" />
        <path fill-rule="evenodd" clip-rule="evenodd"
            d="M667.054 150.427L715.545 178.421L667.054 206.415L618.563 178.421L667.054 150.427ZM667.054 149.427L618.552 121.427L667.477 93.1825L666.61 92.6825L617.686 120.927L569.194 92.9326L618.119 64.6883L617.253 64.1884L568.328 92.4327L519.836 64.438L568.76 36.1938L567.894 35.6938L518.969 63.9381L470.479 35.9443L519.404 7.69986L518.538 7.1999L469.613 35.4443L421.121 7.45015L470.046 -20.7942L469.18 -21.2942L420.255 6.95018L371.764 -21.0438L420.689 -49.2883L419.823 -49.7883L370.898 -21.5438L322.395 -49.5442L371.32 -77.7885L370.454 -78.2884L321.529 -50.0441L273.039 -78.0378L321.964 -106.282L321.098 -106.782L272.173 -78.5378L223.247 -106.782L222.381 -106.282L271.307 -78.0378L222.816 -50.0441L173.891 -78.2883L173.025 -77.7884L221.95 -49.5441L173.447 -21.5437L124.522 -49.788L123.656 -49.2881L172.581 -21.0437L124.09 6.95008L75.166 -21.294L74.3 -20.794L123.224 7.45005L74.7327 35.4442L25.8082 7.2001L24.9421 7.70007L73.8667 35.9442L25.3747 63.9386L-23.5504 35.6942L-24.4164 36.1941L24.5087 64.4386L-23.982 92.4323L-72.9067 64.188L-73.7728 64.688L-24.8481 92.9322L-73.3398 120.927L-122.265 92.6822L-123.131 93.1822L-74.2058 121.426L-122.708 149.427L-171.633 121.183L-172.499 121.683L-123.574 149.927L-172.066 177.921L-220.99 149.677L-221.856 150.177L-172.932 178.421L-221.856 206.665L-220.99 207.165L-172.066 178.921L-123.575 206.915L-172.499 235.159L-171.633 235.659L-122.709 207.415L-74.2066 235.415L-123.131 263.659L-122.265 264.159L-73.3406 235.915L-24.8493 263.909L-73.7735 292.153L-72.9075 292.653L-23.9832 264.409L24.5083 292.403L-24.4158 320.647L-23.5497 321.147L25.3744 292.903L73.8652 320.897L24.9407 349.141L25.8067 349.641L74.7312 321.397L123.224 349.391L74.2992 377.635L75.1652 378.135L124.09 349.891L172.581 377.886L123.657 406.13L124.523 406.63L173.447 378.386L221.95 406.386L173.026 434.63L173.892 435.13L222.816 406.886L271.307 434.88L222.382 463.124L223.248 463.624L272.173 435.38L321.097 463.624L321.963 463.124L273.039 434.88L321.53 406.886L370.454 435.13L371.32 434.63L322.396 406.386L370.898 378.385L419.823 406.629L420.689 406.129L371.764 377.885L420.256 349.891L469.181 378.135L470.047 377.635L421.122 349.391L469.613 321.397L518.537 349.641L519.403 349.141L470.479 320.897L518.971 292.903L567.896 321.147L568.762 320.647L519.837 292.403L568.329 264.409L617.253 292.653L618.119 292.153L569.195 263.909L617.686 235.915L666.61 264.159L667.476 263.659L618.552 235.415L667.054 207.415L715.978 235.659L716.844 235.159L667.92 206.915L716.411 178.921L765.335 207.165L766.201 206.665L717.277 178.421L766.202 150.177L765.336 149.677L716.411 177.921L667.92 149.927L716.845 121.683L715.979 121.183L667.054 149.427ZM-171.2 178.421L-122.709 206.415L-74.2177 178.421L-122.708 150.427L-171.2 178.421ZM-121.842 149.927L-73.3516 177.921L-24.8491 149.92L-73.3398 121.926L-121.842 149.927ZM-72.4737 121.426L-23.983 149.42L24.5087 121.426L-23.982 93.4322L-72.4737 121.426ZM-23.116 92.9322L25.3747 120.926L73.8654 92.9322L25.3747 64.9386L-23.116 92.9322ZM26.2408 64.4386L74.7315 92.4323L123.223 64.4379L74.7327 36.4442L26.2408 64.4386ZM75.5988 35.9442L124.089 63.9379L172.581 35.9437L124.09 7.95001L75.5988 35.9442ZM124.956 7.45004L173.447 35.4437L221.938 7.44994L173.447 -20.5437L124.956 7.45004ZM174.313 -21.0437L222.804 6.94996L271.306 -21.0505L222.816 -49.0441L174.313 -21.0437ZM223.682 -49.5441L272.173 -21.5504L320.663 -49.5442L272.173 -77.5379L223.682 -49.5441ZM273.039 -21.0505L321.529 -49.0442L370.032 -21.0438L321.541 6.94991L273.039 -21.0505ZM223.67 7.44994L272.173 -20.5505L320.675 7.44989L272.172 35.4503L223.67 7.44994ZM174.313 35.9437L222.804 7.94991L271.306 35.9503L222.815 63.9441L174.313 35.9437ZM124.956 64.4379L173.447 36.4437L221.949 64.444L173.458 92.4382L124.956 64.4379ZM75.5975 92.9322L124.089 64.9379L172.592 92.9382L124.1 120.933L75.5975 92.9322ZM26.2408 121.426L74.7315 93.4322L123.234 121.433L74.7431 149.426L26.2408 121.426ZM-23.117 149.92L25.3747 121.926L73.877 149.926L25.3853 177.921L-23.117 149.92ZM-72.4855 178.421L-23.983 150.42L24.5193 178.42L-23.9832 206.421L-72.4855 178.421ZM-121.843 206.915L-73.3516 178.921L-24.8493 206.921L-73.3406 234.915L-121.843 206.915ZM-72.4745 235.415L-23.9833 263.409L24.508 235.415L-23.9833 207.421L-72.4745 235.415ZM-23.1172 206.921L25.3741 234.915L73.8766 206.914L25.3853 178.92L-23.1172 206.921ZM26.2513 178.42L74.7426 206.414L123.234 178.42L74.7431 150.426L26.2513 178.42ZM75.6091 149.926L124.1 177.92L172.591 149.927L124.1 121.933L75.6091 149.926ZM124.966 121.433L173.457 149.427L221.949 121.432L173.458 93.4382L124.966 121.433ZM174.324 92.9382L222.815 120.932L271.307 92.938L222.815 64.944L174.324 92.9382ZM223.682 64.444L272.173 92.438L320.664 64.4443L272.172 36.4503L223.682 64.444ZM273.038 35.9503L321.53 63.9443L370.032 35.9439L321.541 7.94985L273.038 35.9503ZM322.407 7.44987L370.898 35.4439L419.389 7.45014L370.898 -20.5439L322.407 7.44987ZM371.764 35.9438L420.255 7.9501L468.747 35.9443L420.256 63.938L371.764 35.9438ZM322.396 64.4442L370.898 36.4438L419.39 64.438L370.887 92.4384L322.396 64.4442ZM273.039 92.938L321.53 64.9442L370.021 92.9384L321.53 120.932L273.039 92.938ZM223.681 121.432L272.173 93.438L320.664 121.432L272.173 149.426L223.681 121.432ZM174.323 149.927L222.815 121.932L271.307 149.926L222.815 177.921L174.323 149.927ZM124.966 178.42L173.457 150.427L221.949 178.421L173.458 206.414L124.966 178.42ZM75.6086 206.914L124.1 178.92L172.592 206.914L124.1 234.909L75.6086 206.914ZM26.2401 235.415L74.7426 207.414L123.234 235.409L74.7317 263.409L26.2401 235.415ZM-23.1172 263.909L25.374 235.915L73.8656 263.909L25.3743 291.903L-23.1172 263.909ZM26.2404 292.403L74.7312 320.397L123.222 292.403L74.7317 264.409L26.2404 292.403ZM75.5977 263.909L124.089 291.903L172.591 263.902L124.1 235.909L75.5977 263.909ZM124.966 235.409L173.457 263.402L221.949 235.408L173.458 207.414L124.966 235.409ZM174.324 206.914L222.815 234.908L271.306 206.914L222.815 178.921L174.324 206.914ZM223.681 178.421L272.172 206.414L320.664 178.42L272.173 150.426L223.681 178.421ZM273.039 149.926L321.53 177.92L370.021 149.926L321.53 121.932L273.039 149.926ZM322.396 121.432L370.887 149.426L419.378 121.432L370.887 93.4384L322.396 121.432ZM371.753 92.9384L420.244 120.932L468.747 92.9317L420.256 64.938L371.753 92.9384ZM421.122 64.438L469.613 92.4318L518.103 64.438L469.613 36.4443L421.122 64.438ZM470.479 92.9317L518.969 64.938L567.462 92.9326L518.971 120.926L470.479 92.9317ZM421.11 121.432L469.613 93.4317L518.105 121.426L469.603 149.427L421.11 121.432ZM371.753 149.926L420.244 121.932L468.737 149.927L420.246 177.921L371.753 149.926ZM322.396 178.42L370.887 150.426L419.38 178.42L370.888 206.415L322.396 178.42ZM273.038 206.914L321.53 178.92L370.022 206.915L321.53 234.909L273.038 206.914ZM223.681 235.408L272.172 207.414L320.664 235.409L272.173 263.403L223.681 235.408ZM174.323 263.902L222.815 235.908L271.307 263.903L222.815 291.897L174.323 263.902ZM124.955 292.403L173.457 264.402L221.949 292.397L173.447 320.397L124.955 292.403ZM75.5972 320.897L124.089 292.903L172.581 320.897L124.09 348.891L75.5972 320.897ZM124.956 349.391L173.447 377.386L221.939 349.392L173.447 321.397L124.956 349.391ZM174.313 320.897L222.805 348.892L271.307 320.891L222.815 292.897L174.313 320.897ZM223.682 292.397L272.173 320.391L320.665 292.397L272.173 264.403L223.682 292.397ZM273.039 263.903L321.531 291.897L370.022 263.903L321.53 235.909L273.039 263.903ZM322.396 235.409L370.888 263.403L419.38 235.409L370.888 207.415L322.396 235.409ZM371.754 206.915L420.246 234.909L468.737 206.915L420.246 178.92L371.754 206.915ZM421.112 178.42L469.603 206.415L518.094 178.421L469.603 150.427L421.112 178.42ZM470.469 149.927L518.96 177.921L567.463 149.921L518.971 121.926L470.469 149.927ZM519.837 121.426L568.329 149.421L616.82 121.427L568.328 93.4326L519.837 121.426ZM569.195 149.921L617.686 121.927L666.188 149.927L617.697 177.921L569.195 149.921ZM519.826 178.421L568.329 150.421L616.831 178.421L568.329 206.421L519.826 178.421ZM470.469 206.915L518.96 178.921L567.463 206.921L518.972 234.915L470.469 206.915ZM421.112 235.409L469.603 207.415L518.106 235.415L469.614 263.409L421.112 235.409ZM371.754 263.903L420.246 235.909L468.748 263.909L420.256 291.904L371.754 263.903ZM322.397 292.397L370.888 264.403L419.39 292.404L370.899 320.397L322.397 292.397ZM273.039 320.891L321.531 292.897L370.033 320.897L321.542 348.891L273.039 320.891ZM223.671 349.392L272.173 321.391L320.675 349.391L272.173 377.392L223.671 349.392ZM174.313 377.886L222.805 349.892L271.307 377.892L222.816 405.886L174.313 377.886ZM223.682 406.386L272.173 434.38L320.664 406.386L272.173 378.392L223.682 406.386ZM273.039 377.892L321.53 405.886L370.032 377.885L321.541 349.891L273.039 377.892ZM322.408 349.391L370.898 377.385L419.39 349.391L370.899 321.397L322.408 349.391ZM371.765 320.897L420.256 348.891L468.747 320.897L420.256 292.903L371.765 320.897ZM421.122 292.404L469.613 320.397L518.105 292.403L469.614 264.409L421.122 292.404ZM470.48 263.909L518.971 291.903L567.463 263.909L518.972 235.915L470.48 263.909ZM519.838 235.415L568.329 263.409L616.82 235.415L568.329 207.421L519.838 235.415ZM569.195 206.921L617.686 234.915L666.188 206.915L617.697 178.921L569.195 206.921Z"
            fill="url(#paint0_radial_705_10649)" />
        <path
            d="M152.345 119.118L177.97 133.911C181.318 135.844 181.318 138.977 177.97 140.91L159.417 151.621C156.069 153.554 156.069 156.688 159.417 158.621L220.995 194.169M351 233.801L325.375 219.008C322.027 217.075 316.598 217.075 313.25 219.008L294.697 229.718C291.349 231.651 285.921 231.651 282.573 229.718L220.995 194.169M306.097 145.04L255.758 174.101L238.376 184.135L220.995 194.169M186.232 214.238L220.995 194.169"
            stroke="#151E29" stroke-linejoin="bevel" />
        <path
            d="M343.975 237.737C340.514 235.824 340.501 232.721 343.934 230.807C347.367 228.894 352.952 228.894 356.413 230.807C359.873 232.721 359.886 235.824 356.453 237.737C353.02 239.663 347.435 239.663 343.975 237.737Z"
            fill="#0056B3" stroke="#151E29" stroke-linejoin="round" />
        <path
            d="M300.003 149.128C296.543 147.214 296.529 144.111 299.962 142.198C303.395 140.284 308.98 140.284 312.441 142.198C315.901 144.111 315.915 147.214 312.482 149.128C309.049 151.054 303.463 151.054 300.003 149.128Z"
            fill="#FF668A" stroke="#151E29" stroke-linejoin="round" />
        <path
            d="M148.148 124.651C144.688 122.737 144.674 119.634 148.107 117.721C151.54 115.807 157.126 115.807 160.586 117.721C164.046 119.634 164.06 122.737 160.627 124.651C157.194 126.577 151.608 126.577 148.148 124.651Z"
            fill="#FFDE63" stroke="#151E29" stroke-linejoin="round" />
        <path
            d="M218.908 195.519C217.798 194.906 217.794 193.91 218.895 193.297C219.996 192.683 221.787 192.683 222.897 193.297C224.007 193.91 224.011 194.906 222.91 195.519C221.809 196.137 220.018 196.137 218.908 195.519Z"
            fill="#A3E2FF" stroke="#151E29" stroke-linejoin="round" />
        <path
            d="M177.451 219.489C173.991 217.576 173.977 214.473 177.41 212.559C180.843 210.646 186.429 210.646 189.889 212.559C193.349 214.473 193.363 217.576 189.93 219.489C186.497 221.416 180.912 221.416 177.451 219.489Z"
            fill="#A3E2FF" stroke="#151E29" stroke-linejoin="round" />
        <path opacity="0.2" fill-rule="evenodd" clip-rule="evenodd"
            d="M213.268 280.748C222.126 275.627 222.082 267.31 213.268 262.188L139.593 219.333C134.671 216.802 129.224 215.483 123.698 215.483C118.172 215.483 112.725 216.802 107.803 219.333L65.2433 244.262C56.3852 249.383 56.4527 257.7 65.2433 262.822L92.7875 278.849L89.3756 280.82L89.3623 280.828C88.5926 281.275 88.5729 282.678 89.3184 283.961C90.0638 285.244 91.2922 285.921 92.0619 285.474C92.0861 285.46 92.1096 285.445 92.1324 285.429L98.0628 282.001C98.0871 281.987 98.1116 281.974 98.1363 281.961L138.896 305.677C143.817 308.213 149.265 309.536 154.791 309.536C160.318 309.536 165.766 308.213 170.686 305.677L195.775 290.99C195.912 291.033 196.046 291.092 196.174 291.167L202.105 294.594C202.128 294.61 202.151 294.625 202.175 294.639C202.945 295.086 204.173 294.409 204.919 293.126C205.664 291.843 205.645 290.44 204.875 289.993L204.862 289.986L204.854 289.981L201.152 287.842L213.268 280.748ZM204.854 289.981C204.837 289.972 204.82 289.963 204.803 289.955C204.798 289.953 204.794 289.951 204.789 289.949C204.781 289.945 204.772 289.941 204.763 289.938C204.794 289.95 204.824 289.965 204.854 289.981ZM89.474 280.772C89.443 280.785 89.4129 280.8 89.3838 280.816C89.4132 280.8 89.4433 280.785 89.474 280.772Z"
            fill="#006FD6" />
        <path
            d="M219.878 246.489V261.288C219.878 264.62 217.63 267.951 213.335 270.489V255.713C217.63 253.175 219.878 249.843 219.878 246.489Z"
            fill="#7AD1FF" stroke="#151E29" />
        <path d="M213.358 255.713L213.336 270.489L170.754 295.441L170.799 280.642L213.358 255.713Z"
            fill="#7AD1FF" stroke="#151E29" />
        <path d="M139.008 280.642L138.964 295.441L65.3108 252.563L65.3558 237.787L139.008 280.642Z"
            fill="#7AD1FF" stroke="#151E29" />
        <path
            d="M213.268 237.153C222.082 242.275 222.126 250.592 213.268 255.714L170.686 280.642C165.766 283.178 160.318 284.501 154.791 284.501C149.265 284.501 143.817 283.178 138.896 280.642L65.2433 237.787C56.4527 232.665 56.3852 224.349 65.2433 219.227L107.803 194.298C112.725 191.767 118.172 190.448 123.698 190.448C129.224 190.448 134.671 191.767 139.593 194.298L213.268 237.153Z"
            fill="#F5F7FA" stroke="#151E29" />
        <path
            d="M170.799 280.642V295.44C165.875 297.966 160.428 299.282 154.904 299.282C149.379 299.282 143.932 297.966 139.009 295.44V280.642C143.929 283.178 149.377 284.501 154.904 284.501C160.43 284.501 165.878 283.178 170.799 280.642Z"
            fill="#7AD1FF" stroke="#151E29" />
        <path
            d="M197.668 272.328C197.668 269.699 195.821 268.619 193.552 269.921C191.283 271.224 189.436 274.421 189.436 277.05C189.437 279.68 191.284 280.76 193.553 279.458C195.822 278.155 197.668 274.959 197.668 272.328Z"
            fill="#0056B3" stroke="#0056B3" />
        <path
            d="M202.17 282.764L193.056 277.497C192.713 277.299 192.501 276.875 192.499 276.274C192.494 275.065 193.344 273.593 194.397 272.986C194.927 272.681 195.407 272.653 195.754 272.854L204.868 278.122C204.521 277.921 204.041 277.948 203.511 278.253C202.458 278.86 201.609 280.332 201.613 281.541C201.615 282.142 201.827 282.565 202.17 282.764Z"
            fill="#F5F7FA" stroke="#151E29" stroke-linejoin="round" />
        <path
            d="M202.175 282.771C202.945 283.219 204.173 282.541 204.919 281.258C205.664 279.975 205.645 278.573 204.875 278.126C204.105 277.678 202.877 278.356 202.131 279.639C201.386 280.921 201.406 282.324 202.175 282.771Z"
            fill="#F5F7FA" stroke="#151E29" stroke-linejoin="round" />
        <path
            d="M96.5694 263.163C96.5698 260.534 98.4158 259.454 100.685 260.756C102.954 262.059 104.801 265.256 104.801 267.885C104.8 270.514 102.954 271.595 100.684 270.292C98.4152 268.99 96.5696 265.793 96.5694 263.163Z"
            fill="#0056B3" stroke="#0056B3" />
        <path
            d="M92.0668 273.599L101.181 268.331C101.525 268.133 101.737 267.71 101.739 267.109C101.743 265.899 100.893 264.427 99.8405 263.821C99.3108 263.516 98.8305 263.488 98.4834 263.689L89.3689 268.957C89.7166 268.756 90.1962 268.783 90.726 269.088C91.779 269.695 92.6288 271.167 92.6243 272.376C92.6221 272.977 92.4102 273.399 92.0668 273.599Z"
            fill="#F5F7FA" stroke="#151E29" stroke-linejoin="round" />
        <path
            d="M92.0619 273.606C91.2922 274.053 90.0639 273.376 89.3184 272.093C88.573 270.81 88.5927 269.408 89.3624 268.96C90.1321 268.513 91.3604 269.19 92.1059 270.473C92.8513 271.756 92.8317 273.159 92.0619 273.606Z"
            fill="#F5F7FA" stroke="#151E29" stroke-linejoin="round" />
        <path
            d="M96.5697 263.163C96.57 260.534 98.4161 259.454 100.685 260.756C102.954 262.059 104.801 265.256 104.801 267.885C104.801 270.514 102.954 271.595 100.685 270.292C98.4154 268.99 96.5698 265.793 96.5697 263.163Z"
            fill="#0056B3" stroke="#0056B3" />
        <path
            d="M92.0668 273.599L101.181 268.331C101.525 268.133 101.737 267.71 101.739 267.109C101.743 265.899 100.893 264.427 99.8405 263.821C99.3108 263.516 98.8305 263.488 98.4834 263.689L89.3689 268.957C89.7166 268.756 90.1962 268.783 90.726 269.088C91.779 269.695 92.6288 271.167 92.6243 272.376C92.6221 272.977 92.4102 273.399 92.0668 273.599Z"
            fill="#A3E2FF" stroke="#151E29" stroke-linejoin="round" />
        <path
            d="M92.0619 273.606C91.2922 274.053 90.0639 273.376 89.3184 272.093C88.573 270.81 88.5927 269.408 89.3624 268.96C90.1321 268.513 91.3604 269.19 92.1059 270.473C92.8513 271.756 92.8317 273.159 92.0619 273.606Z"
            fill="#7AD1FF" stroke="#151E29" stroke-linejoin="round" />
        <path
            d="M125.878 208.039C124.879 208.541 123.772 208.808 122.649 208.808C121.525 208.808 120.418 208.541 119.418 208.039L110.576 202.413C110.211 202.246 109.896 201.986 109.662 201.659C109.43 201.331 109.287 200.949 109.249 200.549L108.416 208.005C108.454 208.405 108.597 208.788 108.829 209.115C109.062 209.442 109.401 209.702 109.766 209.869L119.417 215.484C120.418 215.997 121.525 216.265 122.649 216.265C123.772 216.265 124.879 215.997 125.88 215.484L135.531 209.869C135.896 209.702 136.234 209.442 136.468 209.115C136.7 208.788 136.843 208.405 136.881 208.005L136.048 200.549C136.01 200.949 135.867 201.331 135.634 201.659C135.401 201.986 135.086 202.246 134.721 202.413L125.878 208.039Z"
            fill="#7AD1FF" />
        <path
            d="M125.88 215.484C124.879 215.997 123.772 216.265 122.649 216.265C121.525 216.265 120.418 215.997 119.417 215.484M125.88 215.484L125.856 215.496M125.88 215.484L135.531 209.869C135.896 209.702 136.234 209.442 136.468 209.115C136.7 208.788 136.843 208.405 136.881 208.005L136.048 200.549C136.01 200.949 135.867 201.331 135.634 201.659C135.401 201.986 135.086 202.246 134.721 202.413L125.878 208.039C124.879 208.541 123.772 208.808 122.649 208.808C121.525 208.808 120.418 208.541 119.418 208.039L110.576 202.413C110.211 202.246 109.896 201.986 109.662 201.659C109.43 201.331 109.287 200.949 109.249 200.549L108.416 208.005C108.454 208.405 108.597 208.788 108.829 209.115C109.062 209.442 109.401 209.702 109.766 209.869L119.417 215.484M119.417 215.484L119.441 215.496"
            stroke="#151E29" />
        <path
            d="M134.816 199.14C136.504 200.118 136.515 201.688 134.816 202.667L125.718 207.947C124.778 208.429 123.737 208.681 122.68 208.681C121.624 208.681 120.583 208.429 119.643 207.947L110.48 202.667C108.803 201.688 108.792 200.118 110.48 199.14L119.589 193.848C120.53 193.371 121.571 193.123 122.627 193.123C123.682 193.123 124.723 193.371 125.665 193.848L134.816 199.14Z"
            fill="#F5F7FA" stroke="#151E29" />
        <path
            d="M98.9153 218.92C99.9148 219.421 101.022 219.689 102.145 219.689C103.269 219.689 104.376 219.421 105.375 218.92L114.218 213.293C114.583 213.126 114.898 212.866 115.131 212.539C115.364 212.212 115.507 211.829 115.545 211.429L116.378 218.886C116.34 219.285 116.197 219.668 115.965 219.995C115.731 220.322 115.393 220.583 115.028 220.749L105.376 226.365C104.376 226.878 103.269 227.145 102.145 227.145C101.022 227.145 99.9148 226.878 98.9142 226.365L89.2629 220.749C88.8977 220.583 88.5593 220.322 88.3259 219.995C88.0936 219.668 87.9507 219.285 87.9127 218.886L88.7461 211.429C88.7841 211.829 88.927 212.212 89.1593 212.539C89.3927 212.866 89.7077 213.126 90.0728 213.293L98.9153 218.92Z"
            fill="#7AD1FF" />
        <path
            d="M98.9142 226.365C99.9148 226.878 101.022 227.145 102.145 227.145C103.269 227.145 104.376 226.878 105.376 226.365M98.9142 226.365L98.9376 226.376M98.9142 226.365L89.2629 220.749C88.8977 220.583 88.5593 220.322 88.3259 219.995C88.0936 219.668 87.9507 219.285 87.9127 218.886L88.7461 211.429C88.7841 211.829 88.927 212.212 89.1593 212.539C89.3927 212.866 89.7077 213.126 90.0728 213.293L98.9153 218.92C99.9148 219.421 101.022 219.689 102.145 219.689C103.269 219.689 104.376 219.421 105.375 218.92L114.218 213.293C114.583 213.126 114.898 212.866 115.131 212.539C115.364 212.212 115.507 211.829 115.545 211.429L116.378 218.886C116.34 219.285 116.197 219.668 115.965 219.995C115.731 220.322 115.393 220.583 115.028 220.749L105.376 226.365M105.376 226.365L105.353 226.376"
            stroke="#151E29" />
        <path
            d="M89.9776 210.02C88.2892 210.999 88.2785 212.568 89.9776 213.547L99.0753 218.827C100.015 219.309 101.057 219.561 102.113 219.561C103.17 219.561 104.211 219.309 105.151 218.827L114.313 213.547C115.991 212.568 116.002 210.999 114.313 210.02L105.205 204.729C104.263 204.251 103.223 204.003 102.167 204.003C101.111 204.003 100.071 204.251 99.1291 204.729L89.9776 210.02Z"
            fill="#F5F7FA" stroke="#151E29" />
        <path
            d="M79.7959 230.4C80.7955 230.902 81.9022 231.169 83.0257 231.169C84.1492 231.169 85.2564 230.902 86.256 230.4L95.0984 224.774C95.4636 224.607 95.7785 224.346 96.012 224.019C96.2442 223.692 96.3872 223.309 96.4252 222.91L97.2585 230.366C97.2206 230.766 97.0776 231.148 96.8453 231.475C96.6119 231.803 96.2735 232.063 95.9083 232.23L86.2571 237.845C85.2564 238.358 84.1492 238.625 83.0257 238.625C81.9022 238.625 80.7955 238.358 79.7948 237.845L70.1435 232.23C69.7783 232.063 69.44 231.803 69.2065 231.475C68.9743 231.148 68.8313 230.766 68.7933 230.366L69.6267 222.91C69.6647 223.309 69.8076 223.692 70.0399 224.019C70.2733 224.346 70.5883 224.607 70.9535 224.774L79.7959 230.4Z"
            fill="#7AD1FF" />
        <path
            d="M79.7948 237.845C80.7954 238.358 81.9022 238.625 83.0257 238.625C84.1492 238.625 85.2564 238.358 86.2571 237.845M79.7948 237.845L79.8183 237.856M79.7948 237.845L70.1435 232.23C69.7783 232.063 69.44 231.803 69.2065 231.475C68.9743 231.148 68.8313 230.766 68.7933 230.366L69.6267 222.91C69.6647 223.309 69.8076 223.692 70.0399 224.019C70.2733 224.346 70.5883 224.607 70.9535 224.774L79.7959 230.4C80.7954 230.902 81.9022 231.169 83.0257 231.169C84.1492 231.169 85.2564 230.902 86.256 230.4L95.0984 224.774C95.4636 224.607 95.7785 224.346 96.012 224.019C96.2442 223.692 96.3872 223.309 96.4252 222.91L97.2585 230.366C97.2206 230.766 97.0776 231.148 96.8453 231.475C96.6119 231.803 96.2735 232.063 95.9083 232.23L86.2571 237.845M86.2571 237.845L86.2336 237.856"
            stroke="#151E29" />
        <path
            d="M70.8582 221.5C69.1699 222.479 69.1591 224.049 70.8582 225.027L79.9559 230.308C80.896 230.79 81.9374 231.041 82.9939 231.041C84.0504 231.041 85.0917 230.79 86.0318 230.308L95.1941 225.027C96.8717 224.049 96.8824 222.479 95.1941 221.5L86.0856 216.209C85.144 215.732 84.1032 215.483 83.0476 215.483C81.992 215.483 80.9513 215.732 80.0097 216.209L70.8582 221.5Z"
            fill="#F5F7FA" stroke="#151E29" />
        <path d="M146.792 223.539L111.035 244.181M123.741 251.516L159.497 230.873" stroke="#151E29" />
        <path
            d="M139 232.224L148.539 226.679C148.834 226.511 148.964 226.284 148.927 226.062L148.154 222.164C148.152 221.986 148.033 221.807 147.795 221.668L143.087 218.954C142.823 218.816 142.53 218.744 142.232 218.744C141.935 218.744 141.642 218.816 141.378 218.954L132.689 224.001C132.458 224.133 132.34 224.304 132.333 224.477L131.584 228.527C131.49 228.775 131.612 229.046 131.945 229.242L137.117 232.224C137.409 232.372 137.731 232.449 138.059 232.449C138.386 232.449 138.708 232.372 139 232.224Z"
            fill="#FFDE63" />
        <path
            d="M131.945 228.15C131.757 228.258 131.637 228.389 131.584 228.527M131.584 228.527C131.49 228.775 131.612 229.046 131.945 229.242L137.117 232.224C137.409 232.372 137.731 232.449 138.059 232.449C138.386 232.449 138.708 232.372 139 232.224L148.539 226.679C148.834 226.511 148.964 226.284 148.927 226.062L148.154 222.164C148.152 221.986 148.033 221.807 147.795 221.668L143.087 218.954C142.823 218.816 142.53 218.744 142.232 218.744C141.935 218.744 141.642 218.816 141.378 218.954L132.689 224.001C132.458 224.133 132.34 224.304 132.333 224.477L131.584 228.527Z"
            stroke="#151E29" stroke-linejoin="round" />
        <path
            d="M147.795 221.668C148.273 221.947 148.273 222.389 147.795 222.662L139.112 227.709C138.846 227.844 138.552 227.914 138.254 227.914C137.956 227.914 137.663 227.844 137.397 227.709L132.689 224.995C132.216 224.716 132.21 224.274 132.689 224.001L141.378 218.954C141.642 218.816 141.935 218.744 142.232 218.744C142.53 218.744 142.823 218.816 143.087 218.954L147.795 221.668Z"
            fill="#FFDE63" stroke="#151E29" stroke-linejoin="round" />
        <path
            d="M126.103 254.138L135.642 248.593C135.937 248.425 136.067 248.197 136.03 247.976L135.257 244.078C135.255 243.899 135.136 243.72 134.898 243.582L130.19 240.867C129.926 240.73 129.633 240.658 129.335 240.658C129.038 240.658 128.745 240.73 128.481 240.867L119.792 245.915C119.561 246.046 119.443 246.217 119.436 246.39L118.687 250.441C118.593 250.689 118.715 250.959 119.048 251.156L124.22 254.138C124.512 254.286 124.834 254.363 125.162 254.363C125.489 254.363 125.811 254.286 126.103 254.138Z"
            fill="#7AD1FF" />
        <path
            d="M119.048 250.064C118.86 250.171 118.74 250.302 118.687 250.441M118.687 250.441C118.593 250.689 118.715 250.959 119.048 251.156L124.22 254.138C124.512 254.286 124.834 254.363 125.162 254.363C125.489 254.363 125.811 254.286 126.103 254.138L135.642 248.593C135.937 248.425 136.067 248.197 136.03 247.976L135.257 244.078C135.255 243.899 135.136 243.72 134.898 243.582L130.19 240.867C129.926 240.73 129.633 240.658 129.335 240.658C129.038 240.658 128.745 240.73 128.481 240.867L119.792 245.915C119.561 246.046 119.443 246.217 119.436 246.39L118.687 250.441Z"
            stroke="#151E29" />
        <path
            d="M134.898 243.582C135.376 243.861 135.376 244.303 134.898 244.576L126.215 249.623C125.949 249.758 125.655 249.828 125.357 249.828C125.06 249.828 124.766 249.758 124.5 249.623L119.792 246.908C119.319 246.63 119.313 246.187 119.792 245.915L128.481 240.867C128.745 240.73 129.038 240.658 129.335 240.658C129.633 240.658 129.926 240.73 130.19 240.867L134.898 243.582Z"
            fill="#F5F7FA" stroke="#151E29" />
        <path
            d="M58.625 243.318V228.542C58.625 231.919 60.8733 235.341 65.3698 237.879V252.655C60.8283 250.071 58.625 246.695 58.625 243.318Z"
            fill="#7AD1FF" stroke="#151E29" stroke-linejoin="round" />
        <path
            d="M140.549 259.784C140.021 259.478 140.021 258.984 140.549 258.679C141.078 258.374 141.935 258.374 142.463 258.679L145.187 260.251C148.273 262.033 153.55 260.771 153.55 258.251L153.55 256.028C153.55 255.596 154.156 255.246 154.904 255.246C155.651 255.246 156.257 255.596 156.257 256.028L156.257 258.251C156.257 260.771 161.534 262.033 164.62 260.251L167.344 258.679C167.872 258.374 168.729 258.374 169.258 258.679C169.786 258.984 169.786 259.478 169.258 259.784L166.534 261.356C163.447 263.138 165.633 266.184 169.998 266.184L173.85 266.184C174.598 266.184 175.204 266.534 175.204 266.966C175.204 267.397 174.598 267.747 173.85 267.747L169.999 267.747C165.634 267.747 163.448 270.793 166.534 272.575L169.258 274.147C169.786 274.452 169.786 274.947 169.258 275.252C168.729 275.557 167.872 275.557 167.344 275.252L164.62 273.679C161.534 271.898 156.257 273.16 156.257 275.679L156.257 277.903C156.257 278.334 155.651 278.684 154.904 278.684C154.156 278.684 153.55 278.334 153.55 277.903L153.55 275.679C153.55 273.16 148.273 271.898 145.187 273.679L142.463 275.252C141.935 275.557 141.078 275.557 140.549 275.252C140.021 274.947 140.021 274.452 140.549 274.147L143.273 272.575C146.36 270.793 144.174 267.746 139.809 267.746L135.957 267.746C135.21 267.746 134.604 267.397 134.604 266.965C134.604 266.534 135.21 266.184 135.957 266.184L139.809 266.184C144.174 266.184 146.359 263.138 143.273 261.356L140.549 259.784Z"
            fill="#7AD1FF" />
        <path
            d="M167.031 259.812C160.457 256.017 149.799 256.017 143.225 259.812L142.776 260.071C136.202 263.866 136.202 270.019 142.776 273.814C149.349 277.609 160.008 277.609 166.581 273.814L167.031 273.555C173.605 269.76 173.605 263.607 167.031 259.812Z"
            fill="#A3E2FF" stroke="#7AD1FF" />
        <path
            d="M145.807 250.526C150.919 247.575 159.208 247.575 164.32 250.526C166.717 251.91 167.99 253.697 168.139 255.509L168.138 265.899C167.989 267.711 166.716 269.498 164.319 270.882L163.969 271.084C158.857 274.035 150.569 274.035 145.457 271.084C142.906 269.611 141.628 267.682 141.623 265.752L141.624 256.053C141.632 254.125 142.91 252.199 145.458 250.728L145.807 250.526Z"
            fill="#FFDE63" stroke="#151E29" />
        <path
            d="M164.317 250.423C159.205 247.472 150.917 247.472 145.805 250.423L145.455 250.625C140.343 253.576 140.343 258.361 145.455 261.312C150.567 264.263 158.855 264.263 163.967 261.312L164.317 261.11C169.429 258.159 169.429 253.374 164.317 250.423Z"
            fill="#FFF4B5" stroke="#151E29" />
        <path d="M154.881 256.104L167.082 257.847" stroke="#151E29" stroke-linecap="round" />
        <rect width="27.8069" height="6.16413" rx="3.08207"
            transform="matrix(0.866044 0.499968 -0.866044 0.499967 184.048 234.324)" fill="#0056B3"
            stroke="#0056B3" />
        <path
            d="M186.552 233.283C185.078 232.432 182.688 232.432 181.213 233.283C180.524 233.681 180.157 234.194 180.113 234.715L180.113 237.139C180.063 237.731 180.43 238.333 181.213 238.786L190.745 244.289C192.22 245.14 194.61 245.14 196.084 244.289C196.816 243.866 197.184 243.313 197.189 242.759L197.189 240.315C197.184 239.761 196.816 239.208 196.084 238.786L186.552 233.283Z"
            fill="#7AD1FF" stroke="#151E29" />
        <path
            d="M181.379 232.885C182.853 232.034 185.243 232.034 186.717 232.885L196.071 238.285C197.545 239.136 197.545 240.516 196.071 241.367C194.597 242.218 192.207 242.218 190.733 241.367L181.379 235.967C179.904 235.116 179.904 233.736 181.379 232.885Z"
            fill="#F5F7FA" stroke="#151E29" />
        <rect width="27.8069" height="6.16413" rx="3.08207"
            transform="matrix(0.866044 0.499968 -0.866044 0.499967 174.416 240.863)" fill="#151E29"
            stroke="#151E29" />
        <path
            d="M186.433 245.321C184.959 244.47 182.568 244.47 181.094 245.321C180.405 245.719 180.038 246.233 179.993 246.754L179.993 249.177C179.944 249.77 180.31 250.372 181.094 250.824L190.626 256.327C192.1 257.178 194.491 257.178 195.965 256.327C196.697 255.905 197.065 255.352 197.07 254.798L197.07 252.353C197.065 251.8 196.697 251.247 195.965 250.824L186.433 245.321Z"
            fill="#F63C6E" stroke="#151E29" />
        <path
            d="M181.259 244.924C182.734 244.073 185.124 244.073 186.598 244.924L195.952 250.324C197.426 251.175 197.426 252.554 195.952 253.406C194.478 254.257 192.088 254.257 190.613 253.406L181.259 248.005C179.785 247.154 179.785 245.775 181.259 244.924Z"
            fill="#FF668A" stroke="#151E29" />
        <rect opacity="0.2" width="66.7233" height="66.7233" rx="11"
            transform="matrix(0.866044 0.499967 -0.866044 0.499967 102.45 79.2621)" fill="#006FD6" />
        <rect width="74.8607" height="74.8607" rx="11"
            transform="matrix(0.866044 0.499967 -0.866044 0.499967 102.45 54.2459)" fill="#F5F7FA"
            stroke="#151E29" stroke-linejoin="round" />
        <path opacity="0.3"
            d="M80.8917 70.8805L86.6956 74.2386L90.8206 71.9019C91.6226 71.392 92.5532 71.1212 93.5035 71.1212C94.4539 71.1212 95.3845 71.392 96.1865 71.9019L108.05 78.8015C109.879 79.8305 111.909 80.453 114 80.6267C115.978 80.8741 117.987 80.674 119.877 80.0421C119.381 80.4358 119.016 80.9716 118.834 81.5785C118.651 82.1854 118.659 82.835 118.856 83.4376C119.119 84.1867 119.529 84.875 120.062 85.4642C120.594 86.0533 121.239 86.5312 121.958 86.8687L133.822 93.7684C135.611 94.827 135.647 95.8486 133.822 96.9072L129.624 99.3152L135.428 102.711L142.729 98.5862C145.138 97.1991 146.379 95.7382 146.379 94.205C146.379 92.6719 145.174 91.2859 142.729 89.8988L130.755 82.926C129.04 81.9404 128.164 81.0635 128.091 80.297C128.018 79.5304 128.529 78.7285 129.843 77.8159L131.887 76.3917L126.302 73.1424L123.856 74.3117C122.527 75.038 121.026 75.3904 119.512 75.333C117.905 75.1801 116.355 74.6555 114.986 73.8001L103.049 66.8274C100.842 65.5022 98.3229 64.7851 95.7485 64.7473C93.0894 64.7556 90.4809 65.4733 88.1924 66.8274L80.8917 70.8805Z"
            fill="#006FD6" stroke="#006FD6" stroke-linejoin="round" />
        <path d="M80.8916 54.2428L80.9281 66.1429L86.7322 69.5378L86.6957 57.6376L80.8916 54.2428Z"
            fill="#0056B3" stroke="#0056B3" stroke-linejoin="round" />
        <path fill-rule="evenodd" clip-rule="evenodd"
            d="M129.843 61.1057L129.843 61.1053L131.887 59.6817L131.924 71.6184L129.879 73.0055L129.879 72.9008L129.843 73.0052C128.674 73.8083 128.054 74.5753 128.054 75.2689V63.3696C128.054 62.5665 128.674 61.909 129.843 61.1059L129.843 61.1057Z"
            fill="#0056B3" />
        <path
            d="M129.843 61.1053L129.343 61.1067C129.342 60.9427 129.422 60.7888 129.557 60.695L129.843 61.1053ZM129.843 61.1057L130.343 61.1043C130.343 61.2768 130.255 61.4373 130.109 61.529L129.843 61.1057ZM131.887 59.6817L131.601 59.2714C131.754 59.1651 131.953 59.1523 132.118 59.2381C132.283 59.324 132.387 59.4942 132.387 59.6802L131.887 59.6817ZM131.924 71.6184L132.424 71.6168C132.424 71.7831 132.342 71.9387 132.204 72.0321L131.924 71.6184ZM129.879 73.0055L130.16 73.4192C130.007 73.523 129.809 73.534 129.646 73.4477C129.482 73.3614 129.38 73.1919 129.379 73.007L129.879 73.0055ZM129.879 72.9008L129.407 72.7357C129.488 72.5058 129.722 72.3673 129.962 72.4078C130.202 72.4482 130.378 72.6558 130.379 72.8993L129.879 72.9008ZM129.843 73.0052L130.314 73.1704C130.279 73.2706 130.213 73.3571 130.126 73.4172L129.843 73.0052ZM128.554 75.2689C128.554 75.545 128.33 75.7689 128.054 75.7689C127.778 75.7689 127.554 75.545 127.554 75.2689H128.554ZM129.843 61.1059L129.559 60.6939C129.565 60.69 129.571 60.6862 129.577 60.6825L129.843 61.1059ZM130.343 61.104L130.343 61.1043L129.343 61.1071L129.343 61.1067L130.343 61.104ZM132.173 60.092L130.129 61.5156L129.557 60.695L131.601 59.2714L132.173 60.092ZM131.424 71.6199L131.387 59.6832L132.387 59.6802L132.424 71.6168L131.424 71.6199ZM129.599 72.5918L131.643 71.2046L132.204 72.0321L130.16 73.4192L129.599 72.5918ZM130.379 72.8993L130.379 73.004L129.379 73.007L129.379 72.9024L130.379 72.8993ZM129.371 72.8401L129.407 72.7357L130.351 73.066L130.314 73.1704L129.371 72.8401ZM127.554 75.2689C127.554 74.7694 127.777 74.2971 128.119 73.867C128.462 73.4354 128.952 73.0106 129.559 72.5932L130.126 73.4172C129.565 73.803 129.161 74.1631 128.902 74.4892C128.641 74.8168 128.554 75.0748 128.554 75.2689H127.554ZM128.554 63.3696V75.2689H127.554V63.3696H128.554ZM130.126 61.5179C128.942 62.3318 128.554 62.8547 128.554 63.3696H127.554C127.554 62.2783 128.407 61.4862 129.559 60.6939L130.126 61.5179ZM130.109 61.529L130.109 61.5293L129.577 60.6825L129.577 60.6823L130.109 61.529Z"
            fill="#0056B3" />
        <path
            d="M90.9664 67.073C91.7317 66.6135 92.6085 66.371 93.5035 66.371C94.4558 66.371 95.3876 66.6456 96.1864 67.1641V67.1078L108.196 74.0276L108.196 74.0114C110.012 75.0377 112.03 75.6537 114.11 75.8159C116.085 76.0571 118.09 75.8707 119.987 75.2687V63.332C118.096 63.9638 116.088 64.164 114.11 63.9166C112.018 63.7429 109.989 63.1203 108.16 62.0914V62.1274L95.7898 54.8767V55.0374C95.0844 54.6748 94.3009 54.4841 93.5035 54.4841C92.596 54.4841 91.7066 54.731 90.9299 55.1972L90.9299 55.1917L86.6955 57.6375L86.732 69.5376L90.9664 67.0919L90.9664 67.073Z"
            fill="#0056B3" stroke="#0056B3" stroke-linejoin="round" />
        <path fill-rule="evenodd" clip-rule="evenodd"
            d="M118.965 66.7277V78.627C119.225 79.3781 119.634 80.0694 120.167 80.6589C120.7 81.2485 121.347 81.724 122.068 82.0581L122.104 82.0784L122.104 82.0951L133.968 88.9942L133.968 88.9577C134.844 89.5052 135.318 90.0168 135.318 90.5279V78.6268C135.318 78.1157 134.844 77.6058 133.968 77.0583L133.931 77.0803L133.931 77.0576L122.086 70.2057L122.068 70.1588C121.349 69.8213 120.704 69.3434 120.171 68.7543C119.639 68.1652 119.228 67.4769 118.965 66.7277Z"
            fill="#0056B3" />
        <path
            d="M118.965 78.627L118.492 78.7906C118.474 78.7379 118.465 78.6827 118.465 78.627H118.965ZM118.965 66.7277H118.465C118.465 66.484 118.64 66.2759 118.88 66.2348C119.121 66.1938 119.355 66.3318 119.436 66.5617L118.965 66.7277ZM120.167 80.6589L119.796 80.9943H119.796L120.167 80.6589ZM122.068 82.0581L122.278 81.6044C122.289 81.6097 122.301 81.6155 122.312 81.6216L122.068 82.0581ZM122.104 82.0784L122.348 81.6419C122.506 81.73 122.603 81.8962 122.604 82.0768L122.104 82.0784ZM122.104 82.0951L121.853 82.5273C121.699 82.4381 121.605 82.2741 121.604 82.0966L122.104 82.0951ZM133.968 88.9942L134.468 88.9927C134.468 89.1719 134.373 89.3377 134.218 89.4273C134.063 89.5169 133.871 89.5165 133.716 89.4265L133.968 88.9942ZM133.968 88.9577L133.468 88.9592C133.467 88.7771 133.566 88.6092 133.725 88.5207C133.884 88.4322 134.078 88.4372 134.233 88.5337L133.968 88.9577ZM135.818 90.5279C135.818 90.804 135.594 91.0279 135.318 91.0279C135.042 91.0279 134.818 90.804 134.818 90.5279H135.818ZM133.968 77.0583L133.707 76.6315C133.868 76.5329 134.072 76.5339 134.233 76.6343L133.968 77.0583ZM133.931 77.0803L134.192 77.5071C134.038 77.6012 133.845 77.6049 133.687 77.5168C133.53 77.4287 133.432 77.2624 133.431 77.0819L133.931 77.0803ZM133.931 77.0576L134.182 76.6248C134.336 76.7139 134.431 76.8781 134.431 77.0561L133.931 77.0576ZM122.086 70.2057L121.836 70.6385C121.738 70.582 121.663 70.4942 121.621 70.3892L122.086 70.2057ZM122.068 70.1588L122.28 69.7062C122.396 69.7604 122.486 69.8566 122.533 69.9753L122.068 70.1588ZM120.171 68.7543L119.8 69.0896V69.0896L120.171 68.7543ZM118.465 78.627V66.7277H119.465V78.627H118.465ZM119.796 80.9943C119.218 80.3549 118.774 79.6052 118.492 78.7906L119.437 78.4634C119.675 79.151 120.05 79.7838 120.538 80.3236L119.796 80.9943ZM121.858 82.5118C121.076 82.1496 120.374 81.6338 119.796 80.9943L120.538 80.3236C121.026 80.8632 121.617 81.2985 122.278 81.6044L121.858 82.5118ZM121.86 82.5149L121.824 82.4946L122.312 81.6216L122.348 81.6419L121.86 82.5149ZM121.604 82.0966L121.604 82.0799L122.604 82.0768L122.604 82.0935L121.604 82.0966ZM133.716 89.4265L121.853 82.5273L122.355 81.6628L134.219 88.562L133.716 89.4265ZM134.468 88.9561L134.468 88.9927L133.468 88.9958L133.468 88.9592L134.468 88.9561ZM134.233 88.5337C134.69 88.8196 135.074 89.1145 135.347 89.4269C135.622 89.7401 135.818 90.1085 135.818 90.5279H134.818C134.818 90.4362 134.777 90.2932 134.595 90.086C134.413 89.8779 134.121 89.6433 133.703 89.3816L134.233 88.5337ZM134.818 90.5279V78.6268H135.818V90.5279H134.818ZM134.818 78.6268C134.818 78.5353 134.777 78.3928 134.596 78.1861C134.413 77.9784 134.121 77.744 133.703 77.4823L134.233 76.6343C134.69 76.92 135.073 77.2144 135.347 77.5263C135.622 77.8392 135.818 78.2072 135.818 78.6268H134.818ZM134.228 77.485L134.192 77.5071L133.671 76.6536L133.707 76.6315L134.228 77.485ZM134.431 77.0561L134.431 77.0788L133.431 77.0819L133.431 77.0591L134.431 77.0561ZM122.337 69.7729L134.182 76.6248L133.681 77.4904L121.836 70.6385L122.337 69.7729ZM122.533 69.9753L122.551 70.0222L121.621 70.3892L121.603 70.3423L122.533 69.9753ZM120.542 68.4189C121.03 68.9589 121.622 69.3969 122.28 69.7062L121.855 70.6114C121.076 70.2456 120.378 69.7278 119.8 69.0896L120.542 68.4189ZM119.436 66.5617C119.678 67.248 120.054 67.8788 120.542 68.4189L119.8 69.0896C119.223 68.4515 118.779 67.7057 118.493 66.8937L119.436 66.5617Z"
            fill="#0056B3" />
        <path d="M129.733 82.6426L129.77 94.5427L135.574 97.9011L135.537 86.0009L129.733 82.6426Z"
            fill="#0056B3" stroke="#0056B3" stroke-linejoin="round" />
        <path fill-rule="evenodd" clip-rule="evenodd"
            d="M142.692 81.8767V81.8762C145.101 80.4891 146.269 79.0282 146.342 77.4951V89.3962C146.342 90.9215 145.114 92.3735 142.729 93.7543L142.729 93.7767L135.574 97.9016L135.538 86.0014L142.692 81.8767Z"
            fill="#0056B3" />
        <path
            d="M142.692 81.8762H142.192C142.192 81.6974 142.287 81.5321 142.442 81.4429L142.692 81.8762ZM142.692 81.8767H143.192C143.192 82.0554 143.097 82.2206 142.942 82.3099L142.692 81.8767ZM146.342 77.4951L145.843 77.4713C145.856 77.2001 146.083 76.9887 146.354 76.9952C146.626 77.0017 146.842 77.2235 146.842 77.4951H146.342ZM142.729 93.7543L142.229 93.7558C142.228 93.5769 142.323 93.4112 142.478 93.3216L142.729 93.7543ZM142.729 93.7767L143.229 93.7752C143.229 93.9544 143.134 94.1203 142.978 94.2099L142.729 93.7767ZM135.574 97.9016L135.824 98.3348C135.669 98.4238 135.479 98.4239 135.325 98.3349C135.17 98.2459 135.075 98.0814 135.074 97.9031L135.574 97.9016ZM135.538 86.0014L135.038 86.0029C135.037 85.8237 135.132 85.6578 135.288 85.5682L135.538 86.0014ZM143.192 81.8762V81.8767H142.192V81.8762H143.192ZM146.842 77.5188C146.756 79.3154 145.393 80.8979 142.941 82.3095L142.442 81.4429C144.809 80.0803 145.782 78.741 145.843 77.4713L146.842 77.5188ZM145.842 89.3962V77.4951H146.842V89.3962H145.842ZM142.478 93.3216C144.84 91.9544 145.842 90.6312 145.842 89.3962H146.842C146.842 91.2118 145.388 92.7926 142.979 94.187L142.478 93.3216ZM142.229 93.7782L142.229 93.7558L143.229 93.7528L143.229 93.7752L142.229 93.7782ZM135.324 97.4684L142.479 93.3435L142.978 94.2099L135.824 98.3348L135.324 97.4684ZM136.038 85.9999L136.074 97.9001L135.074 97.9031L135.038 86.0029L136.038 85.9999ZM142.942 82.3099L135.787 86.4346L135.288 85.5682L142.442 81.4435L142.942 82.3099Z"
            fill="#0056B3" />
        <path
            d="M80.8917 54.2437L86.6956 57.6017L90.8206 55.265C91.6226 54.7551 92.5532 54.4843 93.5035 54.4843C94.4539 54.4843 95.3845 54.7551 96.1865 55.265L108.05 62.1646C109.879 63.1936 111.909 63.8161 114 63.9898C115.978 64.2372 117.987 64.0371 119.877 63.4052C119.381 63.7989 119.016 64.3347 118.834 64.9416C118.651 65.5486 118.659 66.1982 118.856 66.8007C119.119 67.5499 119.529 68.2382 120.062 68.8273C120.594 69.4164 121.239 69.8943 121.958 70.2318L133.822 77.1315C135.611 78.1901 135.647 79.2117 133.822 80.2703L129.624 82.6783L135.428 86.0738L142.729 81.9493C145.138 80.5622 146.379 79.1013 146.379 77.5682C146.379 76.035 145.174 74.649 142.729 73.2619L130.755 66.2891C129.04 65.3035 128.164 64.4267 128.091 63.6601C128.018 62.8935 128.529 62.0916 129.843 61.179L131.887 59.7548L126.302 56.5055L123.856 57.6748C122.527 58.4011 121.026 58.7535 119.512 58.6961C117.905 58.5432 116.355 58.0186 114.986 57.1632L103.049 50.1905C100.842 48.8654 98.3229 48.1482 95.7485 48.1104C93.0894 48.1187 90.4809 48.8364 88.1924 50.1905L80.8917 54.2437Z"
            fill="#F5F7FA" stroke="#0056B3" stroke-linejoin="round" />
        <path opacity="0.3"
            d="M61.9688 86.0987C59.7281 87.4087 58.5216 88.7537 58.5216 90.1671C58.5216 91.5804 59.5558 92.9945 61.9688 94.3044L73.2755 100.888C74.8267 101.784 75.6885 102.577 75.8609 103.301C76.0333 104.025 75.3783 104.853 74.1373 105.715L72.207 107.025L77.5155 110.091L79.7908 108.989C81.0644 108.319 82.489 107.987 83.9277 108.024C85.4258 108.185 86.8658 108.691 88.1333 109.506L99.4403 116.09C101.587 117.355 104.033 118.021 106.524 118.021C109.016 118.021 111.462 117.355 113.608 116.09L120.503 112.195L115.022 108.989L110.989 111.334C110.238 111.816 109.364 112.073 108.472 112.073C107.58 112.073 106.706 111.816 105.955 111.334L94.7517 104.818C93.0216 103.858 91.1056 103.283 89.1331 103.13C87.2626 102.9 85.3639 103.1 83.5827 103.715C84.0397 103.326 84.3742 102.813 84.5455 102.237C84.7168 101.662 84.7178 101.051 84.548 100.475C84.0509 99.0452 83.0107 97.868 81.6524 97.1996L70.4489 90.6838C68.7253 89.7186 68.7253 88.7539 70.4489 87.7887L74.5164 85.4439L69.0009 82.2727L61.9688 86.0987Z"
            fill="#006FD6" stroke="#006FD6" stroke-linejoin="round" />
        <path fill-rule="evenodd" clip-rule="evenodd"
            d="M70.1732 71.16L70.2074 82.3207L74.2752 80.011L74.5181 79.88L74.5181 68.8704L74.2407 68.773L70.1732 71.0825V71.0138C69.3803 71.5654 68.9663 72.0141 68.9663 72.4967V83.7339C68.9663 83.2513 69.3803 82.8026 70.1732 82.32V71.16Z"
            fill="#0056B3" />
        <path
            d="M70.1732 71.16H69.6732C69.6732 70.8842 69.8966 70.6605 70.1724 70.66C70.4483 70.6596 70.6723 70.8827 70.6732 71.1585L70.1732 71.16ZM70.2074 82.3207L70.4543 82.7555C70.2998 82.8432 70.1103 82.8423 69.9565 82.7532C69.8028 82.664 69.708 82.4999 69.7074 82.3222L70.2074 82.3207ZM74.2752 80.011L74.0282 79.5761L74.0378 79.5709L74.2752 80.011ZM74.5181 79.88L75.0181 79.88C75.0181 80.0638 74.9172 80.2328 74.7554 80.32L74.5181 79.88ZM74.5181 68.8704L74.6837 68.3986C74.884 68.4689 75.0181 68.6581 75.0181 68.8704L74.5181 68.8704ZM74.2407 68.773L73.9938 68.3382C74.1195 68.2668 74.2699 68.2533 74.4063 68.3012L74.2407 68.773ZM70.1732 71.0825L70.4201 71.5173C70.2653 71.6052 70.0755 71.6042 69.9216 71.5146C69.7678 71.4251 69.6732 71.2605 69.6732 71.0825H70.1732ZM70.1732 71.0138L69.8877 70.6034C70.0405 70.497 70.2397 70.4844 70.4047 70.5707C70.5697 70.6569 70.6732 70.8276 70.6732 71.0138H70.1732ZM69.4663 83.7339C69.4663 84.0101 69.2425 84.2339 68.9663 84.2339C68.6902 84.2339 68.4663 84.0101 68.4663 83.7339H69.4663ZM70.1732 82.32H70.6732C70.6732 82.4945 70.5822 82.6564 70.4332 82.7471L70.1732 82.32ZM70.6732 71.1585L70.7074 82.3191L69.7074 82.3222L69.6732 71.1616L70.6732 71.1585ZM69.9606 81.8859L74.0283 79.5762L74.5221 80.4458L70.4543 82.7555L69.9606 81.8859ZM74.0378 79.5709L74.2807 79.4399L74.7554 80.32L74.5126 80.4511L74.0378 79.5709ZM74.0181 79.88L74.0181 68.8704L75.0181 68.8704L75.0181 79.88L74.0181 79.88ZM74.3524 69.3421L74.0751 69.2448L74.4063 68.3012L74.6837 68.3986L74.3524 69.3421ZM74.4876 69.2078L70.4201 71.5173L69.9263 70.6477L73.9938 68.3382L74.4876 69.2078ZM69.6732 71.0825V71.0138H70.6732V71.0825H69.6732ZM70.4587 71.4243C70.0746 71.6915 69.8156 71.9117 69.6554 72.1025C69.4995 72.2883 69.4663 72.4112 69.4663 72.4967H68.4663C68.4663 72.0997 68.6401 71.7568 68.8894 71.4597C69.1345 71.1676 69.4789 70.8877 69.8877 70.6034L70.4587 71.4243ZM69.4663 72.4967V83.7339H68.4663V72.4967H69.4663ZM68.4663 83.7339C68.4663 83.337 68.6399 82.9921 68.8952 82.6987C69.1462 82.4104 69.497 82.1463 69.9132 81.8929L70.4332 82.7471C70.0565 82.9764 69.8039 83.1779 69.6496 83.3552C69.4997 83.5275 69.4663 83.6483 69.4663 83.7339H68.4663ZM69.6732 82.32V71.16H70.6732V82.32H69.6732Z"
            fill="#0056B3" />
        <path
            d="M58.6247 73.6682V84.8028C58.6247 86.1612 59.6953 87.4866 61.9683 88.7452L73.241 95.4692V95.4895C74.7922 96.3858 75.6541 97.1777 75.8264 97.9016V86.6644C75.6541 85.9405 74.7922 85.1469 73.241 84.2507L62.072 77.5632C59.7278 76.3911 58.6247 75.0471 58.6247 73.6682Z"
            fill="#0056B3" stroke="#0056B3" stroke-linejoin="round" />
        <path
            d="M84.6169 95.9036V84.8027C84.6217 85.248 84.5285 85.6887 84.3438 86.0938C84.1591 86.4989 83.8873 86.8591 83.548 87.1475V98.3847C83.8979 98.0752 84.1754 97.6927 84.3602 97.2637C84.5449 96.8346 84.6325 96.3705 84.6169 95.9036Z"
            fill="#0056B3" stroke="#0056B3" stroke-linejoin="round" />
        <path d="M72.1724 90.4218L72.2069 101.66L77.5156 104.728L77.4812 93.4898L72.1724 90.4218Z"
            fill="#0056B3" stroke="#0056B3" stroke-linejoin="round" />
        <path
            d="M79.7564 92.352C81.03 91.6817 82.4546 91.3495 83.8933 91.387C85.1961 91.5264 86.455 91.9277 87.5947 92.5656V92.5178L99.4057 99.4534C101.554 100.728 104.009 101.396 106.507 101.384C108.994 101.39 111.435 100.722 113.574 99.4536L120.331 95.5581L120.365 106.796L113.608 110.691L113.608 110.67L113.574 110.691C111.436 111.96 108.994 112.627 106.507 112.621C104.009 112.633 101.554 111.966 99.4059 110.691V110.672L88.1332 104.142L87.5947 103.824V103.804C86.455 103.166 85.1961 102.764 83.8933 102.624C82.4675 102.587 81.0556 102.914 79.7908 103.572L79.7909 103.59L77.5157 104.728L77.4812 93.4896L79.7564 92.352Z"
            fill="#0056B3" stroke="#0056B3" stroke-linejoin="round" />
        <path
            d="M61.9688 69.4618C59.7281 70.7718 58.5216 72.1168 58.5216 73.5302C58.5216 74.9435 59.5558 76.3576 61.9688 77.6675L73.2755 84.2506C74.8267 85.1469 75.6885 85.9404 75.8609 86.6643C76.0333 87.3883 75.3783 88.2163 74.1373 89.0781L72.207 90.3876L77.5155 93.4545L79.7908 92.352C81.0644 91.6816 82.489 91.35 83.9277 91.3875C85.4258 91.5478 86.8657 92.0543 88.1333 92.8687L99.4403 99.4535C101.587 100.718 104.033 101.384 106.524 101.384C109.016 101.384 111.462 100.718 113.608 99.4535L120.503 95.5585L115.022 92.352L110.989 94.6967C110.238 95.1792 109.364 95.4356 108.472 95.4356C107.58 95.4356 106.706 95.1792 105.955 94.6967L94.7517 88.1809C93.0216 87.2213 91.1056 86.6461 89.1331 86.4927C87.2626 86.2629 85.3639 86.463 83.5827 87.0784C84.0397 86.6895 84.3742 86.1757 84.5455 85.6006C84.7168 85.0254 84.7178 84.4138 84.548 83.8382C84.0509 82.4083 83.0107 81.2311 81.6524 80.5627L70.4489 74.0469C68.7253 73.0817 68.7253 72.117 70.4489 71.1518L74.5164 68.807L69.0009 65.6358L61.9688 69.4618Z"
            fill="#F5F7FA" stroke="#0056B3" stroke-linejoin="round" />
        <rect opacity="0.2" width="98.7818" height="98.7818" rx="11"
            transform="matrix(0.866044 0.499967 -0.866044 0.499967 363.766 92.2003)" fill="#006FD6" />
        <rect width="98.7818" height="98.7818" rx="11"
            transform="matrix(0.866044 0.499967 -0.866044 0.499967 363.766 65.7133)" fill="#7AD1FF"
            stroke="#F5F7FA" stroke-linejoin="round" />
        <path opacity="0.3" fill-rule="evenodd" clip-rule="evenodd"
            d="M354.84 106.016C354.697 105.933 354.52 105.933 354.377 106.016L319.584 126.231C319.442 126.314 319.354 126.467 319.354 126.632C319.354 126.797 319.443 126.95 319.586 127.032L337.894 137.599C338.038 137.682 338.215 137.681 338.358 137.598L373.15 117.383C373.293 117.3 373.381 117.147 373.38 116.982C373.38 116.817 373.292 116.665 373.149 116.582L354.84 106.016Z"
            fill="#006FD6" />
        <path fill-rule="evenodd" clip-rule="evenodd"
            d="M412.754 62.2106L400.685 69.2189L400.471 145.55L400.499 145.539L400.481 145.55C400.533 146.108 400.439 146.671 400.206 147.182C399.973 147.692 399.61 148.133 399.154 148.46L411.213 141.452C411.67 141.124 412.034 140.681 412.267 140.169C412.5 139.656 412.594 139.092 412.539 138.531L412.54 138.531L412.754 62.2106Z"
            fill="#F5F7FA" />
        <path
            d="M400.685 69.2189L400.434 68.7865C400.28 68.8757 400.185 69.0398 400.185 69.2175L400.685 69.2189ZM412.754 62.2106L413.254 62.212C413.254 62.0329 413.159 61.8672 413.004 61.7777C412.849 61.6881 412.658 61.6883 412.503 61.7782L412.754 62.2106ZM400.471 145.55L399.971 145.549C399.97 145.714 400.052 145.869 400.188 145.962C400.324 146.056 400.498 146.076 400.652 146.016L400.471 145.55ZM400.499 145.539L400.75 145.971C400.976 145.84 401.063 145.557 400.949 145.322C400.836 145.087 400.561 144.978 400.318 145.073L400.499 145.539ZM400.481 145.55L400.229 145.117C400.061 145.215 399.965 145.402 399.983 145.596L400.481 145.55ZM400.206 147.182L400.661 147.389H400.661L400.206 147.182ZM399.154 148.46L398.863 148.053C398.646 148.209 398.589 148.507 398.734 148.731C398.879 148.955 399.175 149.026 399.405 148.892L399.154 148.46ZM411.213 141.452L411.464 141.884C411.477 141.876 411.491 141.867 411.504 141.858L411.213 141.452ZM412.267 140.169L411.812 139.962L412.267 140.169ZM412.539 138.531L412.235 138.135C412.098 138.24 412.025 138.408 412.042 138.58L412.539 138.531ZM412.54 138.531L412.844 138.928C412.967 138.833 413.039 138.687 413.04 138.532L412.54 138.531ZM400.936 69.6513L413.005 62.643L412.503 61.7782L400.434 68.7865L400.936 69.6513ZM400.971 145.551L401.185 69.2203L400.185 69.2175L399.971 145.549L400.971 145.551ZM400.318 145.073L400.29 145.084L400.652 146.016L400.68 146.005L400.318 145.073ZM400.732 145.982L400.75 145.971L400.247 145.107L400.229 145.117L400.732 145.982ZM400.661 147.389C400.93 146.799 401.039 146.149 400.979 145.503L399.983 145.596C400.027 146.068 399.947 146.543 399.751 146.974L400.661 147.389ZM399.445 148.866C399.973 148.489 400.392 147.979 400.661 147.389L399.751 146.974C399.554 147.405 399.248 147.777 398.863 148.053L399.445 148.866ZM410.961 141.019L398.903 148.028L399.405 148.892L411.464 141.884L410.961 141.019ZM411.812 139.962C411.615 140.395 411.308 140.768 410.922 141.045L411.504 141.858C412.033 141.479 412.453 140.968 412.722 140.375L411.812 139.962ZM412.042 138.58C412.088 139.053 412.008 139.529 411.812 139.962L412.722 140.375C412.991 139.783 413.1 139.131 413.037 138.483L412.042 138.58ZM412.235 138.134L412.235 138.135L412.844 138.928L412.844 138.928L412.235 138.134ZM412.254 62.2092L412.04 138.53L413.04 138.532L413.254 62.212L412.254 62.2092Z"
            fill="#151E29" />
        <path fill-rule="evenodd" clip-rule="evenodd"
            d="M313.846 1.42612L301.788 8.43442C302.302 8.20189 302.869 8.109 303.43 8.16536C303.992 8.22172 304.529 8.42537 304.987 8.75546L308.845 10.9637L396.148 61.3654L408.217 54.3571L317.089 1.73639L317.063 1.75134L317.056 1.74716C316.597 1.41512 316.058 1.21056 315.494 1.15418C314.93 1.09781 314.362 1.19156 313.846 1.42612Z"
            fill="#F5F7FA" />
        <path
            d="M301.788 8.43442L301.536 8.00213L301.994 8.89003L301.788 8.43442ZM313.846 1.42612L313.639 0.970971L313.616 0.981294L313.595 0.993825L313.846 1.42612ZM303.43 8.16536L303.48 7.66786L303.48 7.66786L303.43 8.16536ZM304.987 8.75546L304.694 9.16107L304.716 9.17639L304.738 9.1894L304.987 8.75546ZM308.845 10.9637L309.095 10.5307L309.093 10.5298L308.845 10.9637ZM396.148 61.3654L395.898 61.7984L396.149 61.9431L396.399 61.7977L396.148 61.3654ZM408.217 54.3571L408.468 54.7895L409.215 54.3559L408.467 53.9241L408.217 54.3571ZM317.089 1.73639L317.339 1.30339L317.088 1.1585L316.837 1.30417L317.089 1.73639ZM317.063 1.75134L316.808 2.18136L317.06 2.33121L317.314 2.18356L317.063 1.75134ZM317.056 1.74716L316.763 2.1523L316.781 2.1656L316.801 2.17717L317.056 1.74716ZM315.494 1.15418L315.444 1.6517L315.494 1.15418ZM302.039 8.86671L314.097 1.85841L313.595 0.993825L301.536 8.00213L302.039 8.86671ZM303.48 7.66786C302.831 7.60272 302.176 7.71008 301.582 7.97881L301.994 8.89003C302.428 8.69369 302.906 8.61529 303.38 8.66286L303.48 7.66786ZM305.279 8.34985C304.75 7.9684 304.129 7.733 303.48 7.66786L303.38 8.66286C303.854 8.71043 304.308 8.88234 304.694 9.16107L305.279 8.34985ZM309.093 10.5298L305.235 8.32152L304.738 9.1894L308.596 11.3977L309.093 10.5298ZM396.398 60.9323L309.095 10.5307L308.595 11.3968L395.898 61.7984L396.398 60.9323ZM407.966 53.9247L395.897 60.933L396.399 61.7977L408.468 54.7895L407.966 53.9247ZM316.839 2.16939L407.967 54.7901L408.467 53.9241L317.339 1.30339L316.839 2.16939ZM317.314 2.18356L317.34 2.16861L316.837 1.30417L316.812 1.31912L317.314 2.18356ZM316.801 2.17717L316.808 2.18136L317.318 1.32132L317.311 1.31714L316.801 2.17717ZM315.444 1.6517C315.92 1.6993 316.375 1.872 316.763 2.1523L317.349 1.34201C316.818 0.958235 316.196 0.721823 315.544 0.656666L315.444 1.6517ZM314.053 1.88126C314.488 1.68327 314.968 1.6041 315.444 1.6517L315.544 0.656666C314.892 0.591512 314.235 0.69986 313.639 0.970971L314.053 1.88126Z"
            fill="#151E29" />
        <path
            d="M396.147 61.3653C397.473 62.2214 398.576 63.3795 399.366 64.7448C400.157 66.11 400.612 67.6435 400.695 69.219L400.481 145.55C400.481 148.439 398.426 149.594 395.901 148.139L304.773 95.5292C303.45 94.6706 302.349 93.5118 301.558 92.1471C300.768 90.7824 300.311 89.2504 300.225 87.6758L300.45 11.3553C300.45 8.46645 302.504 7.30026 305.019 8.75541L396.147 61.3653Z"
            fill="#A3E2FF" stroke="#151E29" />
        <mask id="mask0_705_10649" style="mask-type:alpha" maskUnits="userSpaceOnUse" x="299" y="7"
            width="103" height="143">
            <path
                d="M396.147 61.3652C397.473 62.2213 398.576 63.3794 399.366 64.7446C400.157 66.1099 400.612 67.6434 400.695 69.2188L400.481 145.55C400.481 148.439 398.426 149.594 395.901 148.139L304.773 95.529C303.45 94.6704 302.349 93.5117 301.558 92.147C300.768 90.7823 300.311 89.2503 300.225 87.6757L300.45 11.3552C300.45 8.46633 302.504 7.30014 305.019 8.75529L396.147 61.3652Z"
                fill="#F5F7FA" stroke="black" />
        </mask>
        <g mask="url(#mask0_705_10649)">
            <path
                d="M384.712 52.3751L307.234 97.1028M404.743 63.9391L327.265 108.667M424.774 75.5031L347.297 120.231M444.805 87.0672L367.328 131.795M449.341 107.577L349.185 49.7566M433.845 116.522L333.689 58.7022M418.35 125.468L318.194 67.6477M402.854 134.413L302.698 76.5933M364.68 40.8111L287.203 85.5388L387.359 143.359L464.836 98.6312L364.68 40.8111Z"
                stroke="#E6F8FF" />
            <path
                d="M396.147 61.3652C397.473 62.2213 398.576 63.3794 399.366 64.7446C400.157 66.1099 400.612 67.6434 400.695 69.2188L400.481 145.55C400.481 148.439 398.426 149.594 395.901 148.139L304.773 95.529C303.45 94.6704 302.349 93.5117 301.558 92.147C300.768 90.7823 300.311 89.2503 300.225 87.6757L300.45 11.3552C300.45 8.46633 302.504 7.30014 305.019 8.75529L396.147 61.3652Z"
                stroke="#151E29" />
            <path
                d="M396.147 61.3652C397.473 62.2213 398.576 63.3794 399.366 64.7446C400.157 66.1099 400.612 67.6434 400.695 69.2188L400.481 145.55C400.481 148.439 398.426 149.594 395.901 148.139L304.773 95.529C303.45 94.6704 302.349 93.5117 301.558 92.147C300.768 90.7823 300.311 89.2503 300.225 87.6757L300.45 11.3552C300.45 8.46633 302.504 7.30014 305.019 8.75529L396.147 61.3652Z"
                stroke="#151E29" stroke-opacity="0.2" />
        </g>
        <path d="M400.722 80.2704L412.743 73.3316" stroke="#F5F7FA" />
        <path
            d="M412.764 73.3321L400.722 80.2709L400.695 69.2189C400.612 67.6435 400.157 66.11 399.366 64.7447C398.576 63.3795 397.473 62.2213 396.148 61.3653L408.217 54.357C409.541 55.2143 410.643 56.3727 411.433 57.7377C412.224 59.1027 412.68 60.6356 412.764 62.2106V73.3321Z"
            fill="#F5F7FA" />
        <path
            d="M400.722 80.2709L400.222 80.2721L400.224 81.1348L400.971 80.7041L400.722 80.2709ZM412.764 73.3321L413.014 73.7653L413.264 73.6211V73.3321H412.764ZM396.148 61.3653L395.897 60.9329C395.746 61.0203 395.652 61.1795 395.648 61.3534C395.644 61.5273 395.73 61.6909 395.876 61.7853L396.148 61.3653ZM408.217 54.357L408.489 53.9373C408.331 53.835 408.129 53.8301 407.966 53.9246L408.217 54.357ZM411.433 57.7377L411.001 57.9883L411.001 57.9883L411.433 57.7377ZM412.764 62.2106H413.264C413.264 62.2017 413.264 62.1928 413.264 62.1838L412.764 62.2106ZM400.695 69.2189L401.195 69.2177C401.195 69.2094 401.195 69.201 401.194 69.1927L400.695 69.2189ZM400.971 80.7041L413.014 73.7653L412.515 72.8989L400.472 79.8376L400.971 80.7041ZM396.399 61.7977L408.468 54.7894L407.966 53.9246L395.897 60.9329L396.399 61.7977ZM407.945 54.7767C409.203 55.5911 410.25 56.6916 411.001 57.9883L411.866 57.4872C411.036 56.0539 409.879 54.8375 408.489 53.9373L407.945 54.7767ZM411.001 57.9883C411.751 59.285 412.185 60.7412 412.265 62.2374L413.264 62.1838C413.175 60.53 412.696 58.9204 411.866 57.4872L411.001 57.9883ZM401.194 69.1927C401.107 67.5383 400.629 65.9279 399.799 64.4942L398.934 64.9953C399.685 66.2921 400.117 67.7487 400.196 69.2451L401.194 69.1927ZM399.799 64.4942C398.969 63.0605 397.811 61.8443 396.419 60.9453L395.876 61.7853C397.135 62.5984 398.183 63.6985 398.934 64.9953L399.799 64.4942ZM400.195 69.2201L400.222 80.2721L401.222 80.2697L401.195 69.2177L400.195 69.2201ZM412.264 62.2106V73.3321H413.264V62.2106H412.264Z"
            fill="#151E29" />
        <path
            d="M396.148 61.3653L408.217 54.357C409.541 55.2143 410.643 56.3727 411.433 57.7377C412.224 59.1027 412.68 60.6356 412.764 62.2106L400.695 69.2189C400.612 67.6435 400.157 66.11 399.366 64.7447C398.576 63.3795 397.473 62.2213 396.148 61.3653Z"
            fill="#F5F7FA" stroke="#151E29" stroke-linejoin="round" />
        <path fill-rule="evenodd" clip-rule="evenodd"
            d="M354.862 71.4891C354.696 71.3933 354.492 71.3936 354.326 71.4898L319.534 91.7049C319.369 91.8008 319.268 91.9773 319.268 92.1682C319.268 92.3591 319.37 92.5354 319.535 92.6308L337.844 103.197C338.01 103.293 338.214 103.293 338.38 103.197L373.172 82.9817C373.337 82.8858 373.439 82.7092 373.439 82.5183C373.438 82.3274 373.336 82.1512 373.171 82.0557L354.862 71.4891Z"
            fill="#018BFF" fill-opacity="0.2" />
        <path d="M370.99 62.3039L336.198 82.519L317.889 71.9523L352.681 51.7372L370.99 62.3039Z"
            fill="#7AD1FF" stroke="#0056B3" stroke-linejoin="round" />
        <path d="M370.99 62.304L370.955 75.5792L336.163 95.7943L336.198 82.5191L370.99 62.304Z"
            fill="#7AD1FF" stroke="#7AD1FF" stroke-linejoin="round" />
        <path d="M336.198 82.5189L336.163 95.7941L317.854 85.2158L317.889 71.9522L336.198 82.5189Z"
            fill="#F5F7FA" stroke="#0056B3" stroke-linejoin="round" />
        <path
            d="M344.508 68.67V72.037C344.508 73.0394 343.848 74.0392 342.532 74.8032C339.885 76.3417 335.581 76.3417 332.915 74.8032C331.574 74.0262 330.906 73.0135 330.908 71.9982V68.6312C330.908 69.6465 331.576 70.6618 332.915 71.4362C335.583 72.9747 339.888 72.9747 342.535 71.4362C343.848 70.6721 344.506 69.6723 344.508 68.67Z"
            fill="#0056B3" stroke="#0056B3" stroke-linejoin="round" />
        <path
            d="M342.493 65.865C345.158 67.4035 345.171 69.8977 342.524 71.4362C339.877 72.9747 335.573 72.9747 332.905 71.4362C330.237 69.8977 330.227 67.4035 332.874 65.865C335.521 64.3265 339.836 64.3265 342.493 65.865Z"
            fill="#F5F7FA" stroke="#0056B3" stroke-linejoin="round" />
        <path
            d="M359.261 60.2209V63.5879C359.261 64.5903 358.6 65.5901 357.285 66.3541C354.638 67.8926 350.333 67.8926 347.668 66.3541C346.326 65.5771 345.658 64.5644 345.661 63.5491V60.1821C345.661 61.1974 346.329 62.2127 347.668 62.9871C350.336 64.5256 354.64 64.5256 357.287 62.9871C358.6 62.223 359.258 61.2232 359.261 60.2209Z"
            fill="#F5F7FA" stroke="#7AD1FF" stroke-linejoin="round" />
        <path
            d="M357.246 57.4158C359.911 58.9542 359.924 61.4485 357.277 62.987C354.63 64.5255 350.325 64.5255 347.657 62.987C344.99 61.4485 344.979 58.9542 347.626 57.4158C350.273 55.8773 354.588 55.8773 357.246 57.4158Z"
            fill="#F5F7FA" stroke="#7AD1FF" stroke-linejoin="round" />
        <path d="M359.14 56.0051L354.541 58.6772L336.232 48.1105L340.782 45.4672L359.14 56.0051Z"
            fill="#7AD1FF" stroke="#0056B3" stroke-linejoin="round" />
        <path d="M359.159 55.9941L370.472 62.676L354.506 71.9523L354.541 58.6771L359.159 55.9941Z"
            fill="#0056B3" stroke="#0056B3" stroke-linejoin="round" />
        <path d="M354.541 58.6771L354.506 71.9523L336.198 61.374L336.233 48.1104L354.541 58.6771Z"
            fill="#F5F7FA" stroke="#0056B3" stroke-linejoin="round" />
        <path
            d="M397.366 51.8661C398.903 52.754 398.912 54.1981 397.384 55.0852C395.856 55.9724 393.363 55.9731 391.826 55.0852C390.289 54.1974 390.28 52.7526 391.808 51.8654C393.336 50.9783 395.828 50.9783 397.366 51.8661Z"
            fill="#0056B3" stroke="#151E29" stroke-linejoin="round" />
        <path
            d="M392.784 27.4749L392.787 52.818C392.787 53.0855 392.963 53.3526 393.314 53.5568C394.019 53.9676 395.167 53.9676 395.877 53.5568C396.235 53.35 396.413 53.0786 396.412 52.8076L396.409 27.4645C396.409 27.7356 396.232 28.007 395.874 28.2137C395.164 28.6246 394.016 28.6246 393.311 28.2137C392.96 28.0095 392.785 27.743 392.784 27.4749Z"
            fill="#F5F7FA" stroke="#151E29" stroke-linejoin="round" />
        <path
            d="M392.781 27.4698C392.78 26.8687 393.591 26.3792 394.592 26.3764C395.594 26.3736 396.408 26.8586 396.409 27.4597C396.411 28.0608 395.6 28.5503 394.598 28.5531C393.597 28.5559 392.783 28.0709 392.781 27.4698Z"
            fill="#F5F7FA" stroke="#151E29" stroke-linejoin="round" />
        <path fill-rule="evenodd" clip-rule="evenodd"
            d="M377.472 82.3157C377.306 82.2199 377.102 82.2202 376.936 82.3165L342.144 102.532C341.979 102.627 341.877 102.804 341.878 102.995C341.878 103.186 341.98 103.362 342.145 103.457L360.454 114.024C360.62 114.12 360.824 114.12 360.99 114.023L395.782 93.8083C395.947 93.7124 396.049 93.5359 396.048 93.345C396.048 93.1541 395.946 92.9778 395.781 92.8824L377.472 82.3157Z"
            fill="#018BFF" fill-opacity="0.2" />
        <path d="M371.005 96.768L336.212 116.983L317.904 106.416L352.696 86.2014L371.005 96.768Z"
            fill="#7AD1FF" stroke="#0056B3" stroke-linejoin="round" />
        <path d="M371.004 96.768L370.969 110.043L336.177 130.258L336.212 116.983L371.004 96.768Z"
            fill="#0056B3" stroke="#0056B3" stroke-linejoin="round" />
        <path d="M336.212 116.983L336.177 130.258L317.869 119.68L317.904 106.416L336.212 116.983Z"
            fill="#F5F7FA" stroke="#0056B3" stroke-linejoin="round" />
        <path
            d="M344.523 103.134V106.501C344.523 107.503 343.862 108.503 342.546 109.267C339.899 110.806 335.595 110.806 332.93 109.267C331.588 108.49 330.92 107.478 330.922 106.462V103.095C330.922 104.111 331.591 105.126 332.93 105.9C335.597 107.439 339.902 107.439 342.549 105.9C343.862 105.136 344.52 104.136 344.523 103.134Z"
            fill="#0056B3" stroke="#0056B3" stroke-linejoin="round" />
        <path
            d="M342.508 100.329C345.173 101.868 345.186 104.362 342.539 105.9C339.892 107.439 335.587 107.439 332.919 105.9C330.252 104.362 330.241 101.868 332.888 100.329C335.535 98.7906 339.85 98.7906 342.508 100.329Z"
            fill="#F5F7FA" stroke="#0056B3" stroke-linejoin="round" />
        <path
            d="M359.275 94.685V98.0521C359.275 99.0544 358.615 100.054 357.299 100.818C354.652 102.357 350.347 102.357 347.682 100.818C346.341 100.041 345.672 99.0285 345.675 98.0132V94.6462C345.675 95.6615 346.343 96.6768 347.682 97.4512C350.35 98.9897 354.655 98.9897 357.302 97.4512C358.615 96.6871 359.273 95.6873 359.275 94.685Z"
            fill="#F5F7FA" stroke="#7AD1FF" stroke-linejoin="round" />
        <path
            d="M357.26 91.8799C359.925 93.4184 359.938 95.9126 357.291 97.4511C354.644 98.9896 350.34 98.9896 347.672 97.4511C345.004 95.9126 344.994 93.4184 347.641 91.8799C350.288 90.3414 354.603 90.3414 357.26 91.8799Z"
            fill="#F5F7FA" stroke="#7AD1FF" stroke-linejoin="round" />
        <path d="M389.348 72.9262L354.555 93.1413L336.247 82.5746L371.039 62.3596L389.348 72.9262Z"
            fill="#7AD1FF" stroke="#0056B3" stroke-linejoin="round" />
        <path d="M389.348 72.9262L389.313 86.2014L354.521 106.416L354.556 93.1412L389.348 72.9262Z"
            fill="#0056B3" stroke="#0056B3" stroke-linejoin="round" />
        <path d="M354.555 93.1412L354.521 106.416L336.212 95.8381L336.247 82.5745L354.555 93.1412Z"
            fill="#F5F7FA" stroke="#0056B3" stroke-linejoin="round" />
        <path
            d="M362.866 79.2923V82.6594C362.866 83.6617 362.206 84.6615 360.89 85.4256C358.243 86.964 353.938 86.964 351.273 85.4256C349.932 84.6485 349.263 83.6358 349.266 82.6205V79.2535C349.266 80.2688 349.934 81.2841 351.273 82.0585C353.941 83.597 358.246 83.597 360.893 82.0585C362.206 81.2944 362.864 80.2946 362.866 79.2923Z"
            fill="#0056B3" stroke="#0056B3" stroke-linejoin="round" />
        <path
            d="M360.851 76.4873C363.516 78.0258 363.529 80.52 360.882 82.0585C358.235 83.597 353.93 83.597 351.263 82.0585C348.595 80.52 348.585 78.0258 351.232 76.4873C353.879 74.9488 358.194 74.9488 360.851 76.4873Z"
            fill="#F5F7FA" stroke="#0056B3" stroke-linejoin="round" />
        <path
            d="M377.619 70.8431V74.2101C377.619 75.2125 376.958 76.2123 375.642 76.9763C372.995 78.5148 368.691 78.5148 366.026 76.9763C364.684 76.1993 364.016 75.1866 364.018 74.1713V70.8043C364.018 71.8196 364.687 72.8349 366.026 73.6093C368.693 75.1478 372.998 75.1478 375.645 73.6093C376.958 72.8452 377.616 71.8454 377.619 70.8431Z"
            fill="#0056B3" stroke="#0056B3" stroke-linejoin="round" />
        <path
            d="M375.604 68.0381C378.269 69.5766 378.282 72.0708 375.635 73.6093C372.988 75.1478 368.683 75.1478 366.015 73.6093C363.347 72.0708 363.337 69.5766 365.984 68.0381C368.631 66.4996 372.946 66.4996 375.604 68.0381Z"
            fill="#F5F7FA" stroke="#0056B3" stroke-linejoin="round" />
        <path d="M400.695 69.2188L400.48 145.55" stroke="#151E29" />
        <path d="M400.695 69.2188L400.48 145.55" stroke="#151E29" stroke-opacity="0.2" />
        <path
            d="M399.366 64.7453C398.576 63.38 397.473 62.2219 396.147 61.3658L305.019 8.7559C302.504 7.30075 300.45 8.46694 300.45 11.3558L300.422 22.2248L400.668 80.0898L400.695 69.2195C400.612 67.644 400.157 66.1105 399.366 64.7453Z"
            stroke="#151E29" />
        <path
            d="M399.366 64.7453C398.576 63.38 397.473 62.2219 396.147 61.3658L305.019 8.7559C302.504 7.30075 300.45 8.46694 300.45 11.3558L300.422 22.2248L400.668 80.0898L400.695 69.2195C400.612 67.644 400.157 66.1105 399.366 64.7453Z"
            fill="#F5F7FA" stroke="#151E29" />
        <circle cx="307.52" cy="18.0995" r="3.20989" fill="#FF668A" stroke="#151E29" />
        <circle cx="316.734" cy="23.442" r="3.20989" fill="#FFDE63" stroke="#151E29" />
        <circle cx="325.947" cy="28.7845" r="3.20989" fill="#A3E2FF" stroke="#151E29" />
        <rect opacity="0.4" width="71.1051" height="71.1051" rx="11"
            transform="matrix(0.866044 0.499967 -0.866044 0.499967 398.267 236.887)" fill="#006FD6" />
        <path
            d="M388.74 231.846C394.001 228.808 402.532 228.808 407.793 231.846L450.32 256.397C455.582 259.434 455.582 264.358 450.32 267.396L407.793 291.947C402.532 294.984 394.001 294.984 388.74 291.947L346.213 267.396C340.952 264.358 340.952 259.434 346.213 256.397L388.74 231.846Z"
            fill="#F5F7FA" stroke="#151E29" stroke-linejoin="round" />
        <path opacity="0.55"
            d="M417.447 252.589C427.992 258.73 428.118 268.571 417.573 274.67C407.155 280.811 389.973 280.811 379.428 274.67C368.884 268.571 368.758 258.73 379.302 252.589C389.847 246.449 406.819 246.449 417.447 252.589Z"
            fill="#006FD6" />
        <path
            d="M425.386 251.541V256.799C425.386 260.752 422.782 264.748 417.53 267.818C407.112 273.959 389.93 273.959 379.385 267.818C374.092 264.748 371.446 260.71 371.446 256.757V251.499C371.446 255.579 374.05 259.533 379.385 262.561C389.93 268.701 407.028 268.701 417.53 262.561C422.74 259.533 425.386 255.579 425.386 251.541Z"
            fill="#0056B3" stroke="#0056B3" />
        <path
            d="M417.447 240.48C427.991 246.621 428.117 256.463 417.573 262.561C407.154 268.702 389.972 268.702 379.428 262.561C368.883 256.463 368.757 246.621 379.302 240.48C389.846 234.34 406.818 234.34 417.447 240.48Z"
            fill="#F5F7FA" stroke="#151E29" />
        <path
            d="M398.414 217.096C385.265 217.096 374.594 230.387 374.594 246.748C374.594 250.238 376.947 253.982 381.652 256.716C386.315 259.407 392.49 260.795 398.54 260.795C404.589 260.795 410.723 259.449 415.428 256.716C420.259 253.898 422.528 250.112 422.36 246.411C422.065 230.218 411.395 217.096 398.414 217.096Z"
            fill="#F5F7FA" stroke="#151E29" />
        <path
            d="M422.237 195.754C422.237 192.137 419.885 188.646 415.18 185.913C405.811 180.487 390.73 180.487 381.446 185.913C376.615 188.731 374.346 192.516 374.514 196.217C374.682 212.452 385.353 225.532 398.334 225.532C411.525 225.49 422.237 212.199 422.237 195.754Z"
            fill="#F5F7FA" stroke="#151E29" />
        <mask id="mask1_705_10649" style="mask-type:alpha" maskUnits="userSpaceOnUse" x="374"
            y="216" width="49" height="46">
            <path
                d="M398.414 217.096C385.265 217.096 374.594 230.387 374.594 246.747C374.594 250.238 376.947 253.982 381.652 256.715C386.315 259.407 392.49 260.795 398.54 260.795C404.589 260.795 410.723 259.449 415.428 256.715C420.259 253.897 422.528 250.112 422.36 246.411C422.065 230.218 411.395 217.096 398.414 217.096Z"
                fill="#F5F7FA" stroke="black" />
        </mask>
        <g mask="url(#mask1_705_10649)">
            <path
                d="M417.447 240.481C427.991 246.621 428.117 256.463 417.573 262.561C407.155 268.702 389.972 268.702 379.428 262.561C368.883 256.463 368.757 246.621 379.302 240.481C389.846 234.34 406.818 234.34 417.447 240.481Z"
                fill="#A3E2FF" stroke="#7AD1FF" />
            <path
                d="M398.414 217.096C385.265 217.096 374.594 230.387 374.594 246.747C374.594 250.238 376.947 253.982 381.652 256.715C386.315 259.407 392.49 260.795 398.54 260.795C404.589 260.795 410.723 259.449 415.428 256.715C420.259 253.897 422.528 250.112 422.36 246.411C422.065 230.218 411.395 217.096 398.414 217.096Z"
                stroke="#151E29" />
        </g>
        <mask id="mask2_705_10649" style="mask-type:alpha" maskUnits="userSpaceOnUse" x="374"
            y="181" width="49" height="46">
            <path
                d="M422.237 195.754C422.237 192.137 419.885 188.646 415.18 185.913C405.811 180.487 390.73 180.487 381.446 185.913C376.615 188.731 374.346 192.516 374.514 196.217C374.682 212.452 385.353 225.532 398.334 225.532C411.525 225.49 422.237 212.199 422.237 195.754Z"
                fill="#F5F7FA" stroke="black" />
        </mask>
        <g mask="url(#mask2_705_10649)">
            <path
                d="M398.414 217.096C385.265 217.096 374.594 230.387 374.594 246.748C374.594 250.239 376.947 253.982 381.652 256.716C386.315 259.408 392.49 260.796 398.54 260.796C404.589 260.796 410.723 259.45 415.428 256.716C420.259 253.898 422.528 250.113 422.36 246.411C422.065 230.219 411.395 217.096 398.414 217.096Z"
                fill="#A3E2FF" />
            <path
                d="M398.414 217.096C385.265 217.096 374.594 230.387 374.594 246.748C374.594 250.239 376.947 253.982 381.652 256.716C386.315 259.408 392.49 260.796 398.54 260.796C404.589 260.796 410.723 259.45 415.428 256.716C420.259 253.898 422.528 250.113 422.36 246.411C422.065 230.219 411.395 217.096 398.414 217.096Z"
                stroke="#7AD1FF" />
            <path
                d="M422.237 195.754C422.237 192.137 419.885 188.646 415.18 185.913C405.811 180.487 390.73 180.487 381.446 185.913C376.615 188.731 374.346 192.516 374.514 196.217C374.682 212.452 385.353 225.532 398.334 225.532C411.525 225.49 422.237 212.199 422.237 195.754Z"
                stroke="#151E29" />
        </g>
        <path
            d="M425.344 183.81V189.067C425.344 193.02 422.74 197.016 417.488 200.086C407.07 206.227 389.888 206.227 379.343 200.086C374.05 197.016 371.404 192.978 371.404 189.025V183.725C371.404 187.805 374.008 191.759 379.343 194.787C389.888 200.928 406.986 200.928 417.488 194.787C422.74 191.759 425.344 187.805 425.344 183.81Z"
            fill="#7AD1FF" stroke="#151E29" />
        <path
            d="M417.444 172.244C428.115 178.469 428.157 188.563 417.571 194.787C406.984 201.012 389.76 201.012 379.089 194.787C368.419 188.563 368.377 178.469 378.963 172.244C389.55 165.977 406.774 165.977 417.444 172.244Z"
            fill="#F5F7FA" stroke="#151E29" />
        <path
            d="M414.523 174.455C423.568 179.457 423.603 187.568 414.63 192.569C405.656 197.571 391.057 197.571 382.012 192.569C372.967 187.568 372.931 179.457 381.905 174.455C390.879 169.42 405.478 169.42 414.523 174.455Z"
            fill="#7AD1FF" stroke="#151E29" />
        <path fill-rule="evenodd" clip-rule="evenodd"
            d="M411.414 176.427C409.419 175.275 406.754 174.976 404.423 175.337C403.253 175.518 402.147 175.867 401.236 176.375C400.327 176.882 399.588 177.56 399.194 178.408L396.942 183.26L388.412 184.58C385.759 184.99 383.872 186.169 383.184 187.651C383.148 187.728 383.115 187.807 383.086 187.886L382.91 187.609V188.713C382.903 188.822 382.903 188.931 382.91 189.04V189.3H382.938C382.974 189.535 383.042 189.769 383.142 190.001C383.475 190.772 384.151 191.474 385.15 192.051C387.144 193.203 389.809 193.502 392.141 193.141C393.311 192.96 394.416 192.61 395.327 192.102C396.237 191.596 396.976 190.918 397.369 190.07L399.621 185.218L408.152 183.898C410.804 183.488 412.692 182.309 413.38 180.827C413.542 180.478 413.635 180.116 413.655 179.75H413.658V179.674C413.659 179.626 413.659 179.577 413.658 179.528V178.059L413.409 178.449C413.072 177.688 412.401 176.996 411.414 176.427ZM402.444 179.135C402.615 178.768 402.956 178.433 403.447 178.16C403.936 177.887 404.55 177.689 405.221 177.585C406.573 177.376 408.079 177.559 409.166 178.187C409.707 178.499 410.011 178.844 410.149 179.163C410.283 179.472 410.274 179.789 410.13 180.099C409.831 180.743 408.909 181.409 407.353 181.65L400.808 182.662L402.444 179.135ZM389.211 186.828L395.756 185.816L394.119 189.342C393.949 189.71 393.607 190.045 393.116 190.318C392.628 190.591 392.014 190.789 391.342 190.893C389.991 191.102 388.484 190.918 387.398 190.291C386.856 189.978 386.552 189.634 386.415 189.315C386.281 189.005 386.29 188.688 386.434 188.378C386.733 187.734 387.655 187.069 389.211 186.828Z"
            fill="#0056B3" />
        <path
            d="M404.423 175.337L404.499 175.831L404.423 175.337ZM411.414 176.427L411.664 175.994V175.994L411.414 176.427ZM401.236 176.375L401.48 176.812V176.812L401.236 176.375ZM399.194 178.408L399.648 178.618V178.618L399.194 178.408ZM396.942 183.26L397.019 183.754C397.184 183.729 397.325 183.622 397.396 183.471L396.942 183.26ZM388.412 184.58L388.336 184.085L388.412 184.58ZM383.184 187.651L383.637 187.861L383.637 187.861L383.184 187.651ZM383.086 187.886L382.664 188.154C382.766 188.314 382.95 188.403 383.139 188.383C383.328 188.363 383.489 188.237 383.555 188.059L383.086 187.886ZM382.91 187.609L383.331 187.341C383.212 187.153 382.983 187.067 382.77 187.129C382.556 187.191 382.41 187.387 382.41 187.609H382.91ZM382.91 188.713L383.409 188.743C383.409 188.733 383.41 188.723 383.41 188.713H382.91ZM382.91 189.04H383.41C383.41 189.03 383.409 189.02 383.409 189.01L382.91 189.04ZM382.91 189.3H382.41C382.41 189.576 382.634 189.8 382.91 189.8V189.3ZM382.938 189.3L383.432 189.222C383.394 188.979 383.184 188.8 382.938 188.8V189.3ZM383.142 190.001L383.601 189.803L383.601 189.803L383.142 190.001ZM385.15 192.051L385.4 191.618L385.15 192.051ZM392.141 193.141L392.064 192.647H392.064L392.141 193.141ZM395.327 192.102L395.571 192.539L395.327 192.102ZM397.369 190.07L396.916 189.859L397.369 190.07ZM399.621 185.218L399.545 184.723C399.38 184.749 399.238 184.855 399.168 185.007L399.621 185.218ZM408.152 183.898L408.228 184.392L408.152 183.898ZM413.38 180.827L413.834 181.037V181.037L413.38 180.827ZM413.655 179.75V179.25C413.389 179.25 413.17 179.457 413.156 179.722L413.655 179.75ZM413.658 179.75V180.25C413.934 180.25 414.158 180.026 414.158 179.75H413.658ZM413.658 179.674L413.158 179.661V179.674H413.658ZM413.658 179.528H413.158L413.158 179.541L413.658 179.528ZM413.658 178.059H414.158C414.158 177.837 414.011 177.641 413.798 177.579C413.584 177.517 413.356 177.603 413.236 177.79L413.658 178.059ZM413.409 178.449L412.952 178.652C413.027 178.82 413.188 178.934 413.372 178.948C413.556 178.962 413.732 178.873 413.831 178.718L413.409 178.449ZM403.447 178.16L403.204 177.723L403.447 178.16ZM402.444 179.135L402.898 179.346V179.346L402.444 179.135ZM405.221 177.585L405.145 177.091L405.221 177.585ZM409.166 178.187L408.916 178.62V178.62L409.166 178.187ZM410.149 179.163L409.69 179.361V179.361L410.149 179.163ZM410.13 180.099L409.676 179.889L410.13 180.099ZM407.353 181.65L407.277 181.156L407.353 181.65ZM400.808 182.662L400.354 182.452C400.276 182.619 400.297 182.815 400.408 182.963C400.519 183.11 400.702 183.185 400.884 183.156L400.808 182.662ZM395.756 185.816L396.21 186.026C396.287 185.859 396.267 185.662 396.156 185.515C396.045 185.368 395.862 185.293 395.68 185.321L395.756 185.816ZM389.211 186.828L389.287 187.322H389.287L389.211 186.828ZM394.119 189.342L394.573 189.553L394.119 189.342ZM393.116 190.318L393.36 190.755L393.36 190.755L393.116 190.318ZM391.342 190.893L391.266 190.399H391.266L391.342 190.893ZM387.398 190.291L387.148 190.724L387.148 190.724L387.398 190.291ZM386.415 189.315L385.956 189.513H385.956L386.415 189.315ZM386.434 188.378L386.887 188.589H386.887L386.434 188.378ZM404.499 175.831C406.749 175.483 409.292 175.779 411.164 176.86L411.664 175.994C409.546 174.771 406.759 174.469 404.346 174.843L404.499 175.831ZM401.48 176.812C402.329 176.339 403.375 176.005 404.499 175.831L404.346 174.843C403.13 175.031 401.966 175.396 400.993 175.939L401.48 176.812ZM399.648 178.618C399.983 177.896 400.63 177.286 401.48 176.812L400.993 175.939C400.024 176.478 399.192 177.225 398.741 178.197L399.648 178.618ZM397.396 183.471L399.648 178.618L398.741 178.197L396.489 183.05L397.396 183.471ZM388.489 185.074L397.019 183.754L396.866 182.766L388.336 184.085L388.489 185.074ZM383.637 187.861C384.224 186.596 385.913 185.472 388.489 185.074L388.336 184.085C385.605 184.508 383.519 185.741 382.73 187.44L383.637 187.861ZM383.555 188.059C383.579 187.993 383.607 187.927 383.637 187.861L382.73 187.44C382.689 187.53 382.651 187.621 382.617 187.712L383.555 188.059ZM382.488 187.878L382.664 188.154L383.508 187.617L383.331 187.341L382.488 187.878ZM383.41 188.713V187.609H382.41V188.713H383.41ZM383.409 189.01C383.403 188.921 383.403 188.832 383.409 188.743L382.411 188.684C382.403 188.812 382.403 188.941 382.411 189.069L383.409 189.01ZM383.41 189.3V189.04H382.41V189.3H383.41ZM382.938 188.8H382.91V189.8H382.938V188.8ZM383.601 189.803C383.517 189.609 383.462 189.415 383.432 189.222L382.444 189.377C382.487 189.655 382.567 189.93 382.683 190.199L383.601 189.803ZM385.4 191.618C384.464 191.078 383.88 190.448 383.601 189.803L382.683 190.199C383.071 191.097 383.837 191.871 384.9 192.484L385.4 191.618ZM392.064 192.647C389.814 192.995 387.272 192.699 385.4 191.618L384.9 192.484C387.017 193.707 389.804 194.008 392.217 193.635L392.064 192.647ZM395.084 191.666C394.235 192.139 393.189 192.473 392.064 192.647L392.217 193.635C393.433 193.447 394.598 193.082 395.571 192.539L395.084 191.666ZM396.916 189.859C396.58 190.582 395.934 191.192 395.084 191.666L395.571 192.539C396.539 191.999 397.371 191.253 397.823 190.28L396.916 189.859ZM399.168 185.007L396.916 189.859L397.823 190.28L400.075 185.428L399.168 185.007ZM408.075 183.404L399.545 184.723L399.698 185.712L408.228 184.392L408.075 183.404ZM412.926 180.616C412.339 181.881 410.65 183.006 408.075 183.404L408.228 184.392C410.959 183.97 413.045 182.737 413.834 181.037L412.926 180.616ZM413.156 179.722C413.139 180.021 413.063 180.322 412.926 180.616L413.834 181.037C414.02 180.635 414.131 180.21 414.154 179.777L413.156 179.722ZM413.655 180.25H413.658V179.25H413.655V180.25ZM414.158 179.75V179.674H413.158V179.75H414.158ZM413.158 179.541C413.159 179.581 413.159 179.621 413.158 179.661L414.158 179.688C414.159 179.63 414.159 179.572 414.158 179.515L413.158 179.541ZM414.158 179.528V178.059H413.158V179.528H414.158ZM413.236 177.79L412.988 178.181L413.831 178.718L414.08 178.328L413.236 177.79ZM411.164 176.86C412.088 177.393 412.67 178.014 412.952 178.652L413.867 178.247C413.475 177.363 412.714 176.6 411.664 175.994L411.164 176.86ZM403.204 177.723C402.653 178.03 402.219 178.433 401.991 178.925L402.898 179.346C403.011 179.103 403.259 178.837 403.691 178.596L403.204 177.723ZM405.145 177.091C404.428 177.202 403.755 177.416 403.204 177.723L403.691 178.596C404.117 178.358 404.672 178.176 405.298 178.079L405.145 177.091ZM409.416 177.754C408.206 177.055 406.578 176.869 405.145 177.091L405.298 178.079C406.568 177.883 407.952 178.063 408.916 178.62L409.416 177.754ZM410.608 178.964C410.416 178.52 410.021 178.103 409.416 177.754L408.916 178.62C409.393 178.895 409.606 179.168 409.69 179.361L410.608 178.964ZM410.583 180.31C410.785 179.876 410.801 179.411 410.608 178.964L409.69 179.361C409.765 179.534 409.763 179.702 409.676 179.889L410.583 180.31ZM407.429 182.144C409.065 181.891 410.184 181.17 410.583 180.31L409.676 179.889C409.478 180.316 408.754 180.927 407.277 181.156L407.429 182.144ZM400.884 183.156L407.429 182.144L407.277 181.156L400.731 182.168L400.884 183.156ZM401.991 178.925L400.354 182.452L401.261 182.873L402.898 179.346L401.991 178.925ZM395.68 185.321L389.134 186.334L389.287 187.322L395.833 186.31L395.68 185.321ZM394.573 189.553L396.21 186.026L395.303 185.605L393.666 189.132L394.573 189.553ZM393.36 190.755C393.91 190.448 394.344 190.045 394.573 189.553L393.666 189.132C393.553 189.374 393.304 189.641 392.873 189.881L393.36 190.755ZM391.419 191.387C392.136 191.276 392.809 191.062 393.36 190.755L392.873 189.881C392.446 190.119 391.891 190.302 391.266 190.399L391.419 191.387ZM387.148 190.724C388.357 191.422 389.986 191.608 391.419 191.387L391.266 190.399C389.996 190.595 388.612 190.414 387.648 189.858L387.148 190.724ZM385.956 189.513C386.148 189.958 386.542 190.375 387.148 190.724L387.648 189.858C387.17 189.582 386.957 189.31 386.874 189.117L385.956 189.513ZM385.98 188.168C385.779 188.601 385.763 189.067 385.956 189.513L386.874 189.117C386.799 188.944 386.801 188.775 386.887 188.589L385.98 188.168ZM389.134 186.334C387.499 186.587 386.38 187.307 385.98 188.168L386.887 188.589C387.086 188.161 387.81 187.551 389.287 187.322L389.134 186.334Z"
            fill="#0056B3" />
        <path fill-rule="evenodd" clip-rule="evenodd"
            d="M402.183 176.923C403.073 175.004 407.229 174.361 409.663 175.766C412.096 177.171 410.983 179.57 407.658 180.084L400.179 181.241L402.183 176.923ZM397.187 181.704L399.592 176.522C401.017 173.452 407.666 172.423 411.559 174.671C415.453 176.919 413.672 180.757 408.353 181.58L399.377 182.968L396.972 188.15C395.547 191.221 388.898 192.249 385.004 190.001C381.11 187.753 382.892 183.915 388.211 183.092L397.187 181.704ZM396.385 183.431L394.381 187.749C393.49 189.668 389.334 190.311 386.901 188.906C384.467 187.501 385.581 185.102 388.905 184.588L396.385 183.431Z"
            fill="#7AD1FF" stroke="#0056B3" stroke-linejoin="round" />
    </g>
    <defs>
        <radialGradient id="paint0_radial_705_10649" cx="0" cy="0" r="1"
            gradientUnits="userSpaceOnUse"
            gradientTransform="translate(263.221 151.254) rotate(-113.238) scale(135.854 235.327)">
            <stop stop-color="#7AD1FF" />
            <stop offset="1" stop-color="#7AD1FF" stop-opacity="0" />
        </radialGradient>
        <clipPath id="clip0_705_10649">
            <rect width="499" height="312" fill="white" />
        </clipPath>
    </defs>
</svg>